<svg width="633" height="633" viewBox="0 0 633 633" fill="none" xmlns="http://www.w3.org/2000/svg">
<path d="M117.278 401.506L98.4995 401.859L88.9855 402.001C85.8079 402.06 82.615 402.049 79.4285 402.07L78.8664 402.074L78.8639 401.506L78.7955 385.512L78.793 384.877L79.4285 384.879L98.3527 384.959C104.661 384.966 110.968 385.101 117.277 385.167L117.625 385.171L117.622 385.512C117.598 388.22 117.514 390.916 117.457 393.583L117.278 401.506ZM117.278 401.506L117.098 393.435C117.041 390.773 116.957 388.136 116.932 385.512L117.278 385.858C110.97 385.923 104.662 386.059 98.3539 386.066L79.4298 386.145L80.0615 385.514L79.9931 401.507L79.4285 400.942C82.5505 400.965 85.6661 400.953 88.7969 401.012L98.2071 401.154L117.278 401.506Z" fill="#EBEBEB"/>
<path d="M96.1638 421.673L77.3853 422.027L67.8713 422.168C64.6936 422.228 61.5008 422.216 58.3142 422.238L57.7521 422.242L57.7496 421.673L57.6812 405.68L57.6787 405.044L58.3142 405.047L77.2384 405.127C83.5469 405.133 89.8541 405.269 96.1626 405.334L96.5107 405.338L96.5082 405.68C96.4841 408.388 96.3993 411.083 96.3424 413.751L96.1638 421.673ZM96.1638 421.673L95.9841 413.603C95.9271 410.939 95.8423 408.303 95.8182 405.68L96.1638 406.026C89.8554 406.09 83.5482 406.227 77.2397 406.233L58.3155 406.313L58.9472 405.681L58.8789 421.675L58.3142 421.11C61.4362 421.133 64.5518 421.12 67.6826 421.18L77.0928 421.321L96.1638 421.673Z" fill="#EBEBEB"/>
<path d="M96.1638 75.5982L77.3853 75.9514L67.8713 76.0932C64.6936 76.1527 61.5008 76.14 58.3142 76.1628L57.7521 76.1666L57.7496 75.5982L57.6812 59.6048L57.6787 58.9692L58.3142 58.9718L77.2384 59.0515C83.5469 59.0579 89.8541 59.1933 96.1626 59.2592L96.5107 59.263L96.5082 59.6048C96.4841 62.3127 96.3993 65.0081 96.3424 67.6755L96.1638 75.5982ZM96.1638 75.5982L95.9841 67.5274C95.9271 64.865 95.8423 62.2279 95.8182 59.6048L96.1638 59.9504C89.8554 60.015 83.5482 60.1517 77.2397 60.158L58.3155 60.2365L58.9472 59.6048L58.8789 75.5982L58.3142 75.0335C61.4362 75.0563 64.5518 75.0436 67.6826 75.1031L77.0928 75.2449L96.1638 75.5982Z" fill="#EBEBEB"/>
<path d="M574.684 75.5982L555.906 75.9514L546.392 76.0932C543.214 76.1527 540.021 76.14 536.835 76.1628L536.273 76.1666L536.27 75.5982L536.202 59.6048L536.199 58.9692L536.835 58.9718L555.759 59.0515C562.067 59.0579 568.375 59.1933 574.683 59.2592L575.031 59.263L575.029 59.6048C575.005 62.3127 574.92 65.0081 574.863 67.6755L574.684 75.5982ZM574.684 75.5982L574.505 67.5274C574.448 64.865 574.363 62.2279 574.339 59.6048L574.684 59.9504C568.376 60.015 562.067 60.1517 555.76 60.158L536.836 60.2378L537.468 59.606L537.399 75.5994L536.835 75.0348C539.957 75.0576 543.072 75.0449 546.203 75.1044L555.613 75.2462L574.684 75.5982Z" fill="#EBEBEB"/>
<path d="M553.571 95.7656L534.793 96.1188L525.278 96.2606C522.101 96.3201 518.908 96.3075 515.721 96.3303L515.159 96.3341L515.157 95.7656L515.088 79.7723L515.086 79.1367L515.721 79.1393L534.646 79.219C540.954 79.2253 547.261 79.3608 553.57 79.4266L553.918 79.4304L553.915 79.7723C553.891 82.4802 553.807 85.1755 553.75 87.843L553.571 95.7656ZM553.571 95.7656L553.391 87.6949C553.334 85.0325 553.25 82.3954 553.225 79.7723L553.571 80.1179C547.263 80.1824 540.955 80.3192 534.647 80.3255L515.723 80.4053L516.354 79.7735L516.286 95.7669L515.721 95.2023C518.843 95.225 521.959 95.2124 525.09 95.2719L534.5 95.4137L553.571 95.7656Z" fill="#EBEBEB"/>
<path d="M456.636 282.872L437.857 283.225L428.343 283.367C425.165 283.426 421.972 283.415 418.786 283.436L418.224 283.44L418.221 282.872L418.153 266.878L418.15 266.243L418.786 266.245L437.71 266.325C444.019 266.331 450.326 266.468 456.634 266.533L456.982 266.536L456.98 266.878C456.956 269.586 456.871 272.281 456.814 274.949L456.636 282.872ZM456.636 282.872L456.456 274.801C456.399 272.137 456.314 269.501 456.29 266.878L456.636 267.224C450.327 267.288 444.019 267.425 437.711 267.431L418.787 267.511L419.419 266.879L419.351 282.873L418.786 282.309C421.908 282.331 425.024 282.32 428.154 282.379L437.564 282.521L456.636 282.872Z" fill="#EBEBEB"/>
<path d="M435.521 303.039L416.743 303.392L407.229 303.534C404.051 303.594 400.858 303.581 397.672 303.604L397.11 303.608L397.107 303.039L397.039 287.046L397.036 286.41L397.672 286.413L416.596 286.492C422.904 286.499 429.212 286.636 435.52 286.7L435.868 286.704L435.866 287.046C435.842 289.754 435.757 292.449 435.7 295.116L435.521 303.039ZM435.521 303.039L435.342 294.968C435.285 292.306 435.2 289.669 435.176 287.046L435.521 287.391C429.213 287.456 422.906 287.593 416.597 287.599L397.673 287.679L398.305 287.047L398.236 303.04L397.672 302.476C400.794 302.498 403.909 302.486 407.04 302.545L416.45 302.687L435.521 303.039Z" fill="#EBEBEB"/>
<path d="M414.492 282.872L395.713 283.225L386.199 283.367C383.022 283.426 379.829 283.415 376.642 283.436L376.08 283.44L376.078 282.872L376.009 266.878L376.007 266.243L376.642 266.245L395.567 266.325C401.875 266.331 408.182 266.468 414.491 266.533L414.839 266.536L414.836 266.878C414.812 269.586 414.727 272.281 414.67 274.949L414.492 282.872ZM414.492 282.872L414.312 274.801C414.255 272.137 414.17 269.501 414.146 266.878L414.492 267.224C408.184 267.288 401.875 267.425 395.568 267.431L376.644 267.511L377.275 266.879L377.207 282.873L376.642 282.309C379.764 282.331 382.88 282.32 386.011 282.379L395.421 282.521L414.492 282.872Z" fill="#EBEBEB"/>
<path d="M574.684 421.673L555.906 422.027L546.392 422.168C543.214 422.228 540.021 422.216 536.835 422.238L536.273 422.242L536.27 421.673L536.202 405.68L536.199 405.044L536.835 405.047L555.759 405.127C562.067 405.133 568.376 405.269 574.683 405.334L575.031 405.338L575.029 405.68C575.005 408.388 574.92 411.083 574.863 413.751L574.684 421.673ZM574.684 421.673L574.505 413.603C574.448 410.939 574.363 408.303 574.339 405.68L574.684 406.026C568.376 406.09 562.069 406.227 555.76 406.233L536.836 406.313L537.468 405.681L537.399 421.675L536.835 421.11C539.957 421.133 543.072 421.12 546.203 421.18L555.613 421.321L574.684 421.673Z" fill="#EBEBEB"/>
<path d="M253.106 123.158L234.328 123.511L224.814 123.653C221.636 123.713 218.443 123.7 215.257 123.723L214.695 123.727L214.692 123.158L214.624 107.165L214.621 106.529L215.257 106.532L234.181 106.612C240.489 106.618 246.796 106.753 253.105 106.819L253.453 106.823L253.451 107.165C253.427 109.873 253.342 112.568 253.285 115.236L253.106 123.158ZM253.106 123.158L252.926 115.087C252.869 112.425 252.785 109.788 252.761 107.165L253.106 107.51C246.798 107.575 240.491 107.712 234.182 107.718L215.258 107.798L215.89 107.166L215.821 123.159L215.257 122.595C218.379 122.618 221.494 122.605 224.625 122.664L234.035 122.806L253.106 123.158Z" fill="#EBEBEB"/>
<path d="M535.802 229.11L543.255 217.094L539.575 214.815C538.493 214.144 537.906 212.921 538.015 211.653C538.075 210.952 538.098 210.246 538.082 209.539C538.055 208.269 538.718 207.088 539.837 206.488L543.652 204.442L536.967 191.978L533.154 194.024C532.035 194.624 530.684 194.523 529.642 193.797C529.061 193.393 528.461 193.021 527.844 192.683C526.728 192.072 526.033 190.906 526.073 189.635L526.21 185.307L512.078 184.868L511.947 189.211C511.909 190.484 511.128 191.592 509.976 192.136C509.663 192.284 509.353 192.44 509.047 192.605C508.739 192.769 508.438 192.941 508.143 193.12C507.058 193.776 505.71 193.814 504.632 193.147L500.925 190.85L493.472 202.866L497.159 205.153C498.24 205.826 498.826 207.05 498.716 208.318C498.655 209.016 498.633 209.72 498.647 210.424C498.673 211.691 498.01 212.872 496.892 213.471L493.076 215.517L499.761 227.981L503.576 225.935C504.694 225.335 506.044 225.436 507.086 226.159C507.664 226.56 508.263 226.93 508.878 227.265C509.996 227.875 510.693 229.041 510.653 230.314L510.52 234.651L524.653 235.09L524.788 230.752C524.827 229.483 525.606 228.379 526.753 227.836C527.067 227.688 527.38 227.53 527.69 227.364C527.996 227.199 528.299 227.027 528.595 226.849C529.686 226.19 531.04 226.152 532.123 226.825L535.802 229.11ZM523.837 220.187C518.201 223.21 511.188 221.092 508.164 215.456C505.141 209.82 507.253 202.796 512.89 199.773C518.527 196.75 525.555 198.871 528.579 204.508C531.601 210.145 529.474 217.165 523.837 220.187Z" fill="#EBEBEB"/>
<path d="M128.537 365.254L135.99 353.239L132.309 350.958C131.227 350.287 130.641 349.065 130.75 347.796C130.811 347.095 130.832 346.389 130.817 345.682C130.789 344.412 131.452 343.231 132.572 342.631L136.386 340.585L129.701 328.121L125.888 330.167C124.769 330.767 123.418 330.666 122.376 329.94C121.795 329.536 121.195 329.164 120.579 328.826C119.462 328.215 118.767 327.049 118.808 325.778L118.944 321.451L104.812 321.011L104.682 325.354C104.644 326.627 103.862 327.735 102.71 328.279C102.398 328.426 102.088 328.583 101.781 328.748C101.474 328.912 101.172 329.085 100.877 329.263C99.7923 329.919 98.444 329.957 97.3666 329.29L93.6598 326.993L86.2068 339.009L89.8934 341.296C90.9746 341.969 91.5607 343.193 91.4506 344.461C91.3898 345.16 91.367 345.863 91.3809 346.567C91.4075 347.834 90.7441 349.015 89.6263 349.614L85.8105 351.66L92.495 364.124L96.3107 362.078C97.4286 361.478 98.7782 361.579 99.8201 362.302C100.399 362.703 100.997 363.073 101.613 363.408C102.731 364.019 103.427 365.184 103.388 366.457L103.255 370.794L117.387 371.233L117.523 366.895C117.562 365.626 118.34 364.522 119.487 363.981C119.801 363.832 120.114 363.674 120.424 363.508C120.732 363.344 121.033 363.172 121.329 362.993C122.421 362.335 123.774 362.297 124.858 362.969L128.537 365.254ZM116.571 356.331C110.934 359.355 103.921 357.237 100.897 351.6C97.8743 345.964 99.986 338.94 105.623 335.917C111.26 332.894 118.289 335.016 121.312 340.652C124.335 346.289 122.207 353.308 116.571 356.331Z" fill="#EBEBEB"/>
<path d="M273.289 135.131L268.339 126.551L265.713 128.068C264.941 128.514 263.992 128.471 263.245 127.984C262.832 127.714 262.404 127.468 261.962 127.242C261.17 126.84 260.659 126.038 260.659 125.149V122.119H250.752V125.151C250.752 126.039 250.241 126.841 249.449 127.243C249.007 127.468 248.579 127.716 248.167 127.985C247.42 128.471 246.47 128.516 245.698 128.069L243.072 126.552L238.122 135.132L240.759 136.65C241.533 137.095 241.958 137.944 241.912 138.835C241.9 139.077 241.893 139.32 241.893 139.564C241.893 139.808 241.9 140.052 241.912 140.293C241.958 141.181 241.535 142.025 240.767 142.47L238.122 143.998L243.072 152.577L245.705 151.059C246.478 150.614 247.428 150.658 248.175 151.146C248.587 151.414 249.012 151.661 249.453 151.885C250.244 152.289 250.753 153.089 250.753 153.978V157.011H260.661V153.978C260.661 153.089 261.17 152.289 261.961 151.885C262.4 151.661 262.827 151.414 263.237 151.146C263.984 150.658 264.935 150.614 265.707 151.059L268.34 152.577L273.29 143.998L270.657 142.478C269.886 142.034 269.463 141.188 269.507 140.3C269.52 140.057 269.525 139.812 269.525 139.565C269.525 139.321 269.519 139.078 269.507 138.836C269.462 137.945 269.887 137.095 270.661 136.65L273.289 135.131ZM263.819 139.564C263.819 144.045 260.19 147.674 255.709 147.674C251.229 147.674 247.592 144.045 247.592 139.564C247.592 135.084 251.229 131.447 255.709 131.447C260.19 131.447 263.819 135.084 263.819 139.564Z" fill="#EBEBEB"/>
<path d="M112.465 384.661C95.92 400.858 93.1436 425.916 96.6302 447.865C96.7201 448.363 97.4911 448.227 97.4911 447.76C97.4911 442.763 97.3404 437.812 97.3556 432.876C97.4455 432.649 97.5215 432.438 97.6126 432.211C101.93 429.071 105.9 425.524 108.361 420.662C111.123 415.229 112.21 409.099 114.324 403.423C114.52 402.88 113.94 403.04 113.562 403.32C103.498 410.741 100.29 418.729 97.4025 429.403C97.5379 423.863 97.9608 418.323 99.1533 412.783C101.327 402.654 105.629 392.616 112.906 385.098C113.176 384.812 112.753 384.374 112.465 384.661Z" fill="#263238"/>
<path d="M115.575 386.549C118.421 386.645 120.206 391.194 122.424 392.522C123.598 393.228 124.741 393.185 125.565 392.028C127.763 388.961 124.747 385.175 121.911 383.059C123.939 383.893 125.622 385.358 127.808 385.773C129.133 386.016 130.162 385.525 130.471 384.179C131.434 379.996 126.188 378.135 122.589 378.048C124.333 376.835 129.335 373.537 126.678 371.915C123.985 370.287 118.116 375.003 116.202 376.555C113.389 378.838 110.032 382.25 109.906 385.82C109.741 389.989 113.385 387.424 115.575 386.549Z" fill="#006FFF"/>
<path opacity="0.1" d="M115.575 386.549C118.421 386.645 120.206 391.194 122.424 392.522C123.598 393.228 124.741 393.185 125.565 392.028C127.763 388.961 124.747 385.175 121.911 383.059C123.939 383.893 125.622 385.358 127.808 385.773C129.133 386.016 130.162 385.525 130.471 384.179C131.434 379.996 126.188 378.135 122.589 378.048C124.333 376.835 129.335 373.537 126.678 371.915C123.985 370.287 118.116 375.003 116.202 376.555C113.389 378.838 110.032 382.25 109.906 385.82C109.741 389.989 113.385 387.424 115.575 386.549Z" fill="black"/>
<path d="M114.752 387.251C118.391 385.597 125.381 387.978 125.976 386.601C127.181 383.798 121.594 381.873 118.579 381.501C121.356 380.749 126.677 379.55 126.514 376.871C126.314 373.601 118.352 376.413 114.323 379.503C109.246 383.396 109.279 387.153 110.118 387.905C111.269 388.938 114.15 387.525 114.752 387.251Z" fill="#006FFF"/>
<path d="M74.786 383.057C91.934 398.614 95.6636 423.547 93.0139 445.614C92.943 446.115 92.1682 446.009 92.1504 445.542C91.9605 440.549 91.9226 435.595 91.72 430.664C91.6213 430.441 91.5377 430.233 91.4377 430.009C87.0042 427.035 82.9023 423.642 80.2589 418.878C77.2914 413.554 75.9722 407.471 73.6453 401.879C73.4288 401.343 74.0137 401.48 74.4037 401.746C84.7418 408.78 88.2524 416.64 91.544 427.195C91.1971 421.664 90.5641 416.144 89.1627 410.653C86.6054 400.614 81.925 390.747 74.3682 383.511C74.0834 383.235 74.4885 382.781 74.786 383.057Z" fill="#263238"/>
<path d="M71.7517 385.062C68.9108 385.266 67.3017 389.881 65.1356 391.291C63.9898 392.042 62.8466 392.042 61.9782 390.918C59.6652 387.935 62.5339 384.038 65.2875 381.815C63.2923 382.725 61.6667 384.253 59.4981 384.752C58.1839 385.045 57.137 384.594 56.7762 383.261C55.6545 379.117 60.8261 377.059 64.419 376.835C62.6289 375.689 57.5054 372.583 60.0994 370.862C62.7276 369.132 68.7728 373.62 70.7439 375.1C73.6418 377.274 77.1246 380.555 77.3879 384.118C77.7107 388.277 73.9735 385.852 71.7517 385.062Z" fill="#006FFF"/>
<path opacity="0.1" d="M71.7517 385.062C68.9108 385.266 67.3017 389.881 65.1356 391.291C63.9898 392.042 62.8466 392.042 61.9782 390.918C59.6652 387.935 62.5339 384.038 65.2875 381.815C63.2923 382.725 61.6667 384.253 59.4981 384.752C58.1839 385.045 57.137 384.594 56.7762 383.261C55.6545 379.117 60.8261 377.059 64.419 376.835C62.6289 375.689 57.5054 372.583 60.0994 370.862C62.7276 369.132 68.7728 373.62 70.7439 375.1C73.6418 377.274 77.1246 380.555 77.3879 384.118C77.7107 388.277 73.9735 385.852 71.7517 385.062Z" fill="black"/>
<path d="M72.6012 385.732C68.902 384.217 62.0061 386.863 61.3604 385.51C60.0501 382.753 65.5585 380.62 68.5576 380.133C65.7534 379.487 60.3906 378.492 60.4527 375.809C60.5274 372.534 68.5905 375.041 72.7354 377.976C77.9564 381.672 78.0665 385.427 77.2563 386.211C76.1448 387.286 73.2114 385.983 72.6012 385.732Z" fill="#006FFF"/>
<path d="M92.3229 424.143C93.5889 432.341 95.1587 440.818 97.6477 448.74C97.8857 449.461 98.9567 449.277 98.8466 448.498C97.7199 440.918 95.6664 433.478 94.5409 425.899C93.3965 418.229 92.785 410.453 93.2243 402.697C93.9459 389.924 97.4148 376.337 105.75 366.342C105.934 366.105 105.545 365.77 105.356 365.99C88.6692 385.446 91.324 409.301 91.3392 411.44C88.9769 403.384 86.5423 394.152 77.6069 385.95C77.2221 385.595 76.9207 385.764 76.9853 386.365C78.583 401.305 82.7367 409.105 91.3987 417.092C91.6418 419.46 91.9469 421.816 92.3229 424.143Z" fill="#263238"/>
<path d="M105.898 368.579C108.9 367.246 113.041 371.068 116.011 371.329C117.583 371.471 118.748 370.85 119.022 369.236C119.758 364.946 114.724 362.538 110.715 361.768C113.24 361.612 115.722 362.286 118.2 361.616C119.696 361.201 120.517 360.174 120.161 358.622C119.055 353.796 112.675 354.506 108.896 356.228C110.096 354.091 113.625 348.151 110.052 347.807C106.439 347.473 102.723 355.319 101.518 357.894C99.748 361.68 97.9832 366.907 99.6493 370.676C101.577 375.084 104.066 370.588 105.898 368.579Z" fill="#006FFF"/>
<path opacity="0.1" d="M105.898 368.579C108.9 367.246 113.041 371.068 116.011 371.329C117.583 371.471 118.748 370.85 119.022 369.236C119.758 364.946 114.724 362.538 110.715 361.768C113.24 361.612 115.722 362.286 118.2 361.616C119.696 361.201 120.517 360.174 120.161 358.622C119.055 353.796 112.675 354.506 108.896 356.228C110.096 354.091 113.625 348.151 110.052 347.807C106.439 347.473 102.723 355.319 101.518 357.894C99.748 361.68 97.9832 366.907 99.6493 370.676C101.577 375.084 104.066 370.588 105.898 368.579Z" fill="black"/>
<path d="M105.397 369.723C108.341 366.174 116.793 365.126 116.715 363.398C116.555 359.883 109.79 360.7 106.473 361.83C108.976 359.652 113.893 355.73 112.376 353.033C110.522 349.74 103.677 356.666 101.051 361.901C97.7431 368.496 99.6674 372.376 100.918 372.735C102.634 373.224 104.912 370.309 105.397 369.723Z" fill="#006FFF"/>
<path d="M81.3446 428.64L73.9854 484.87H118.769C117.846 479.887 109.511 428.575 109.511 428.575L81.3446 428.64Z" fill="#006FFF"/>
<path d="M54.9111 485.059L120.308 484.751L185.705 484.64L316.5 484.427L447.294 484.639L512.69 484.75L578.088 485.059L512.69 485.369L447.294 485.481L316.5 485.691L185.705 485.479L120.308 485.367L54.9111 485.059Z" fill="#263238"/>
<path d="M316.5 595.166C420.72 595.166 505.206 583.22 505.206 568.485C505.206 553.749 420.72 541.804 316.5 541.804C212.281 541.804 127.794 553.749 127.794 568.485C127.794 583.22 212.281 595.166 316.5 595.166Z" fill="#EBEBEB"/>
<path d="M199.487 288.233L191.627 257.304L129.545 273.083L121.34 240.8L170.952 127.731L195.559 121.477L219.484 215.615L239.35 210.566L247.612 243.075L227.746 248.123L235.606 279.052L199.487 288.233ZM156.952 231.508L187.655 223.706L177.5 183.747L156.952 231.508Z" fill="#263238"/>
<path d="M377.295 184.985C377.295 195.235 375.74 204.668 372.636 213.287C369.528 221.906 365.258 229.359 359.823 235.648C354.385 241.937 347.981 246.829 340.607 250.322C333.229 253.816 325.193 255.563 316.498 255.563C307.799 255.563 299.727 253.816 292.273 250.322C284.819 246.828 278.373 241.936 272.94 235.648C267.502 229.359 263.273 221.906 260.246 213.287C257.217 204.668 255.703 195.235 255.703 184.985C255.703 174.737 257.217 165.303 260.246 156.685C263.274 148.066 267.502 140.613 272.94 134.324C278.373 128.034 284.819 123.107 292.273 119.533C299.727 115.963 307.799 114.175 316.498 114.175C325.193 114.175 333.228 115.963 340.607 119.533C347.981 123.107 354.385 128.034 359.823 134.324C365.258 140.613 369.528 148.066 372.636 156.685C375.74 165.303 377.295 174.737 377.295 184.985ZM339.792 184.985C339.792 174.118 337.616 165.303 333.27 158.547C328.92 151.793 323.332 148.416 316.499 148.416C309.355 148.416 303.648 151.793 299.379 158.547C295.106 165.303 292.973 174.118 292.973 184.985C292.973 195.856 295.106 204.632 299.379 211.307C303.648 217.985 309.355 221.323 316.499 221.323C323.332 221.323 328.92 217.986 333.27 211.307C337.617 204.632 339.792 195.856 339.792 184.985Z" fill="#263238"/>
<path d="M444.167 282.272L449.27 250.772L386.04 240.527L391.367 207.647L481.896 123.679L506.96 127.739L491.426 223.621L511.66 226.899L506.296 260.01L486.062 256.732L480.958 288.233L444.167 282.272ZM427.733 213.303L459.003 218.37L465.597 177.672L427.733 213.303Z" fill="#263238"/>
<path d="M264.182 91.7357C261.522 91.7357 259.111 91.2153 256.946 90.176C254.78 89.1366 252.922 87.7554 251.372 86.0336C249.819 84.3131 248.618 82.3432 247.766 80.1277C246.914 77.9122 246.487 75.6448 246.487 73.3255C246.487 70.9049 246.938 68.5869 247.842 66.3701C248.745 64.1546 249.99 62.1936 251.575 60.4883C253.16 58.783 255.044 57.4283 257.227 56.4219C259.408 55.4167 261.778 54.9141 264.335 54.9141C266.961 54.9141 269.355 55.4508 271.521 56.5244C273.686 57.598 275.536 59.0045 277.07 60.744C278.604 62.4835 279.797 64.461 280.65 66.6765C281.502 68.8932 281.929 71.1429 281.929 73.428C281.929 75.8499 281.485 78.1578 280.6 80.3581C279.712 82.5572 278.485 84.5005 276.917 86.1881C275.348 87.8756 273.473 89.2227 271.292 90.2279C269.108 91.2331 266.74 91.7357 264.182 91.7357ZM253.647 73.3242C253.647 74.8928 253.885 76.4107 254.362 77.8755C254.839 79.3415 255.529 80.6379 256.433 81.7621C257.336 82.8876 258.445 83.7903 259.758 84.4726C261.069 85.155 262.562 85.4956 264.233 85.4956C265.937 85.4956 267.446 85.1461 268.759 84.4473C270.072 83.7497 271.179 82.8192 272.083 81.6596C272.986 80.5012 273.668 79.1972 274.129 77.7476C274.59 76.2981 274.819 74.8244 274.819 73.323C274.819 71.7557 274.571 70.2377 274.077 68.7717C273.582 67.3057 272.883 66.0106 271.981 64.8851C271.077 63.7596 269.969 62.8658 268.658 62.1999C267.345 61.5352 265.87 61.2023 264.234 61.2023C262.529 61.2023 261.012 61.5517 259.682 62.2505C258.352 62.9494 257.245 63.8697 256.358 65.0117C255.471 66.1549 254.799 67.45 254.338 68.8983C253.877 70.3504 253.647 71.824 253.647 73.3242Z" fill="#263238"/>
<path d="M299.061 91.9912C296.879 91.9912 294.919 91.6165 293.181 90.8657C291.441 90.1162 289.966 89.1009 288.756 87.8235C287.546 86.5449 286.617 85.07 285.968 83.3988C285.32 81.729 284.996 79.9718 284.996 78.131C284.996 76.2561 285.32 74.4837 285.968 72.8126C286.615 71.1427 287.546 69.6678 288.756 68.3892C289.966 67.1105 291.441 66.0964 293.181 65.3457C294.919 64.5962 296.879 64.2202 299.061 64.2202C301.243 64.2202 303.195 64.5962 304.918 65.3457C306.638 66.0964 308.106 67.1105 309.316 68.3892C310.526 69.6678 311.455 71.1427 312.104 72.8126C312.751 74.4837 313.075 76.2561 313.075 78.131C313.075 79.9718 312.751 81.729 312.104 83.3988C311.455 85.07 310.535 86.5436 309.343 87.8235C308.149 89.1022 306.683 90.1175 304.944 90.8657C303.204 91.6152 301.243 91.9912 299.061 91.9912ZM292.054 78.131C292.054 79.3249 292.234 80.4073 292.591 81.3783C292.949 82.3506 293.443 83.1938 294.073 83.9103C294.704 84.6256 295.446 85.1801 296.298 85.5726C297.15 85.965 298.07 86.1613 299.06 86.1613C300.049 86.1613 300.969 85.965 301.821 85.5726C302.673 85.1814 303.415 84.6269 304.046 83.9103C304.676 83.1938 305.171 82.3417 305.528 81.353C305.886 80.3642 306.065 79.2742 306.065 78.0804C306.065 76.922 305.885 75.8484 305.528 74.8584C305.17 73.8697 304.676 73.0176 304.046 72.3011C303.414 71.5845 302.672 71.0313 301.821 70.6388C300.969 70.2464 300.049 70.0501 299.06 70.0501C298.07 70.0501 297.15 70.2552 296.298 70.6642C295.446 71.0731 294.704 71.6364 294.073 72.3517C293.442 73.0683 292.948 73.9203 292.591 74.909C292.233 75.8991 292.054 76.9726 292.054 78.131Z" fill="#263238"/>
<path d="M333.734 91.9912C331.62 91.9912 329.779 91.5228 328.211 90.5847C326.643 89.6478 325.415 88.378 324.529 86.7753V102.374H317.676V64.681H323.659V69.2829C324.648 67.7156 325.926 66.4788 327.495 65.5748C329.062 64.6722 330.87 64.2202 332.915 64.2202C334.722 64.2202 336.392 64.5874 337.927 65.3204C339.461 66.0534 340.783 67.0421 341.891 68.2866C342.998 69.5311 343.868 70.9971 344.5 72.6847C345.13 74.3723 345.446 76.1548 345.446 78.0297C345.446 79.973 345.156 81.7974 344.576 83.5014C343.996 85.2067 343.186 86.6904 342.146 87.9514C341.106 89.2136 339.87 90.2011 338.438 90.9176C337.008 91.6329 335.439 91.9912 333.734 91.9912ZM331.433 86.1613C332.456 86.1613 333.402 85.9397 334.272 85.4966C335.14 85.0535 335.882 84.4572 336.496 83.7065C337.109 82.957 337.586 82.0873 337.928 81.0973C338.27 80.1085 338.439 79.0868 338.439 78.0297C338.439 76.9043 338.252 75.856 337.877 74.885C337.501 73.9127 336.982 73.0696 336.318 72.353C335.653 71.6377 334.868 71.0743 333.965 70.6654C333.061 70.2565 332.082 70.0514 331.026 70.0514C330.378 70.0514 329.713 70.1628 329.032 70.3844C328.349 70.6059 327.719 70.9212 327.139 71.3313C326.559 71.7403 326.04 72.2188 325.579 72.7632C325.12 73.3088 324.769 73.9064 324.531 74.5533V80.8441C325.145 82.3785 326.083 83.6482 327.344 84.6535C328.603 85.6587 329.967 86.1613 331.433 86.1613Z" fill="#263238"/>
<path d="M360.226 91.9913C357.976 91.9913 355.776 91.6331 353.629 90.9178C351.481 90.2025 349.64 89.1783 348.105 87.849L350.663 83.5534C352.3 84.7131 353.894 85.5904 355.444 86.1867C356.997 86.7843 358.539 87.0818 360.073 87.0818C361.435 87.0818 362.51 86.8261 363.295 86.3146C364.079 85.8031 364.471 85.0701 364.471 84.1156C364.471 83.161 364.011 82.4622 363.09 82.0191C362.169 81.576 360.669 81.0645 358.589 80.4847C356.851 80.0074 355.367 79.5466 354.139 79.1035C352.911 78.6604 351.922 78.1578 351.173 77.5944C350.422 77.0323 349.878 76.3841 349.536 75.6511C349.194 74.9181 349.026 74.0395 349.026 73.0165C349.026 71.653 349.289 70.4263 349.818 69.3337C350.346 68.2437 351.088 67.3132 352.043 66.546C352.997 65.7788 354.115 65.1914 355.393 64.7825C356.671 64.3735 358.059 64.1685 359.56 64.1685C361.572 64.1685 363.454 64.4584 365.212 65.0382C366.968 65.618 368.578 66.5549 370.044 67.8513L367.282 71.9936C365.918 70.9707 364.598 70.2212 363.318 69.7439C362.039 69.2666 360.769 69.0286 359.508 69.0286C358.349 69.0286 357.376 69.2679 356.593 69.7439C355.808 70.2212 355.415 70.9884 355.415 72.0455C355.415 72.5228 355.509 72.9153 355.698 73.2216C355.884 73.528 356.184 73.8015 356.593 74.0395C357.002 74.2787 357.538 74.5091 358.203 74.7294C358.868 74.9522 359.694 75.1814 360.683 75.4194C362.524 75.8967 364.1 76.374 365.413 76.8512C366.726 77.3285 367.799 77.8742 368.635 78.4869C369.47 79.1009 370.084 79.8086 370.477 80.6087C370.868 81.4101 371.064 82.3735 371.064 83.499C371.064 86.1247 370.093 88.1959 368.149 89.7125C366.211 91.233 363.567 91.9913 360.226 91.9913Z" fill="#263238"/>
<path d="M376.846 77.8247V54.8101H383.699V77.8247H376.846ZM376.846 91.4798V83.7571H383.699V91.4798H376.846Z" fill="#263238"/>
<path d="M342.581 397.328H297.623V401.011H342.581V397.328Z" fill="#37474F"/>
<path d="M342.581 402.125H297.623V405.808H342.581V402.125Z" fill="#37474F"/>
<path d="M342.581 406.923H297.623V410.606H342.581V406.923Z" fill="#37474F"/>
<path d="M342.581 411.72H297.623V415.403H342.581V411.72Z" fill="#37474F"/>
<path d="M342.581 416.517H297.623V420.2H342.581V416.517Z" fill="#37474F"/>
<path d="M362.044 512.216H276.568V515.899H362.044V512.216Z" fill="#37474F"/>
<path d="M362.044 517.013H276.568V520.696H362.044V517.013Z" fill="#37474F"/>
<path d="M362.044 521.81H276.568V525.493H362.044V521.81Z" fill="#37474F"/>
<path d="M362.044 526.607H276.568V530.29H362.044V526.607Z" fill="#37474F"/>
<path d="M362.044 531.405H276.568V535.088H362.044V531.405Z" fill="#37474F"/>
<path d="M239.064 366.884C239.106 366.387 220.356 360.106 220.356 360.106L221.464 295.685L246.327 290.35L239.064 366.884Z" fill="#006FFF"/>
<path opacity="0.2" d="M239.064 366.884C239.106 366.387 220.356 360.106 220.356 360.106L221.464 295.685L246.327 290.35L239.064 366.884Z" fill="black"/>
<path d="M410.804 392.171C410.935 391.689 430.703 392.245 430.703 392.245L451.832 331.377L430.324 317.812L410.804 392.171Z" fill="#006FFF"/>
<path opacity="0.2" d="M410.804 392.171C410.935 391.689 430.703 392.245 430.703 392.245L451.832 331.377L430.324 317.812L410.804 392.171Z" fill="black"/>
<path d="M235.455 390.607C235.455 390.607 242.407 286.417 248.504 252.143C248.504 252.143 374.366 261.662 442.311 287.632C442.311 287.632 407.282 409.33 405.469 415.368C405.469 415.368 316.839 397.909 235.455 390.607Z" fill="#006FFF"/>
<path opacity="0.1" d="M347.799 266.057C345.753 278.601 343.682 291.142 341.538 303.671L335.051 341.244L334.702 340.714L376.874 350.732L397.937 355.836L418.977 361.042L397.826 356.309L376.699 351.475L334.489 341.615L334.062 341.515L334.14 341.084L340.856 303.55C343.113 291.042 345.444 278.547 347.799 266.057Z" fill="black"/>
<path opacity="0.1" d="M343.171 273.207C343.194 274.357 342.277 275.538 340.96 275.653C340.322 275.714 339.628 275.51 339.109 275.058C338.59 274.606 338.28 273.91 338.276 273.207C338.28 272.505 338.588 271.807 339.108 271.355C339.626 270.899 340.322 270.699 340.96 270.759C342.278 270.874 343.194 272.058 343.171 273.207ZM343.171 273.207C343.166 272.627 342.909 272.058 342.477 271.692C342.044 271.326 341.477 271.177 340.962 271.236C339.899 271.359 339.211 272.312 339.226 273.207C339.209 274.102 339.897 275.061 340.962 275.181C341.477 275.239 342.045 275.09 342.478 274.724C342.909 274.357 343.166 273.787 343.171 273.207Z" fill="black"/>
<path opacity="0.1" d="M340.961 288.709C340.984 289.859 340.067 291.041 338.75 291.155C338.112 291.216 337.419 291.012 336.899 290.56C336.38 290.108 336.07 289.412 336.066 288.709C336.07 288.007 336.378 287.309 336.898 286.857C337.416 286.401 338.112 286.201 338.75 286.261C340.07 286.377 340.985 287.561 340.961 288.709ZM340.961 288.709C340.956 288.129 340.699 287.56 340.267 287.194C339.834 286.828 339.267 286.679 338.752 286.738C337.689 286.861 337.001 287.814 337.016 288.709C336.999 289.604 337.687 290.563 338.752 290.683C339.267 290.741 339.835 290.592 340.268 290.225C340.7 289.86 340.956 289.289 340.961 288.709Z" fill="black"/>
<path opacity="0.1" d="M338.238 305.09C338.261 306.24 337.344 307.422 336.028 307.536C335.39 307.597 334.696 307.394 334.177 306.941C333.658 306.489 333.348 305.793 333.344 305.09C333.348 304.387 333.655 303.69 334.176 303.238C334.693 302.782 335.39 302.582 336.028 302.642C337.347 302.758 338.262 303.941 338.238 305.09ZM338.238 305.09C338.233 304.51 337.976 303.94 337.544 303.575C337.111 303.209 336.544 303.059 336.029 303.119C334.967 303.242 334.278 304.195 334.293 305.09C334.277 305.985 334.964 306.943 336.029 307.064C336.544 307.123 337.113 306.973 337.546 306.607C337.976 306.24 338.233 305.67 338.238 305.09Z" fill="black"/>
<path opacity="0.1" d="M335.516 321.471C335.54 322.62 334.623 323.802 333.306 323.917C332.668 323.976 331.974 323.774 331.455 323.322C330.936 322.87 330.626 322.174 330.622 321.471C330.625 320.768 330.935 320.071 331.454 319.619C331.972 319.163 332.668 318.963 333.306 319.022C334.625 319.138 335.54 320.321 335.516 321.471ZM335.516 321.471C335.511 320.891 335.254 320.321 334.821 319.955C334.388 319.59 333.821 319.44 333.306 319.5C332.244 319.623 331.555 320.576 331.57 321.471C331.554 322.366 332.241 323.324 333.306 323.445C333.821 323.503 334.39 323.353 334.823 322.988C335.254 322.62 335.511 322.051 335.516 321.471Z" fill="black"/>
<path opacity="0.1" d="M344.792 347.594C344.816 348.744 343.898 349.925 342.581 350.04C341.943 350.1 341.25 349.897 340.731 349.445C340.211 348.993 339.901 348.297 339.897 347.594C339.9 346.892 340.209 346.194 340.729 345.742C341.247 345.286 341.943 345.086 342.581 345.146C343.899 345.261 344.815 346.445 344.792 347.594ZM344.792 347.594C344.787 347.015 344.53 346.445 344.097 346.079C343.664 345.713 343.097 345.564 342.581 345.623C341.519 345.746 340.831 346.699 340.846 347.594C340.829 348.489 341.517 349.448 342.581 349.568C343.097 349.628 343.665 349.477 344.098 349.11C344.53 348.744 344.785 348.174 344.792 347.594Z" fill="black"/>
<path opacity="0.1" d="M360.253 351.366C360.277 352.515 359.359 353.698 358.042 353.812C357.404 353.871 356.71 353.669 356.191 353.217C355.672 352.765 355.362 352.069 355.358 351.366C355.362 350.663 355.671 349.966 356.19 349.514C356.708 349.058 357.404 348.858 358.042 348.917C359.361 349.034 360.277 350.216 360.253 351.366ZM360.253 351.366C360.248 350.786 359.991 350.216 359.559 349.851C359.126 349.485 358.559 349.335 358.044 349.395C356.981 349.518 356.293 350.471 356.308 351.366C356.291 352.261 356.979 353.219 358.044 353.34C358.559 353.398 359.127 353.248 359.56 352.881C359.991 352.515 360.248 351.946 360.253 351.366Z" fill="black"/>
<path opacity="0.1" d="M375.716 355.139C375.738 356.288 374.822 357.47 373.505 357.585C372.867 357.644 372.173 357.442 371.654 356.99C371.135 356.538 370.825 355.841 370.821 355.139C370.825 354.436 371.133 353.739 371.653 353.287C372.171 352.831 372.867 352.631 373.505 352.69C374.823 352.806 375.738 353.989 375.716 355.139ZM375.716 355.139C375.711 354.559 375.454 353.989 375.022 353.623C374.589 353.258 374.022 353.108 373.506 353.168C372.444 353.291 371.756 354.244 371.771 355.139C371.754 356.034 372.442 356.992 373.506 357.113C374.022 357.171 374.59 357.021 375.023 356.654C375.454 356.288 375.709 355.717 375.716 355.139Z" fill="black"/>
<path opacity="0.1" d="M391.178 358.91C391.202 360.06 390.284 361.241 388.967 361.356C388.329 361.416 387.635 361.214 387.116 360.761C386.597 360.309 386.287 359.613 386.283 358.91C386.287 358.208 386.595 357.51 387.115 357.058C387.633 356.602 388.329 356.402 388.967 356.462C390.286 356.577 391.2 357.761 391.178 358.91ZM391.178 358.91C391.172 358.331 390.915 357.761 390.484 357.395C390.051 357.029 389.484 356.88 388.968 356.939C387.906 357.062 387.218 358.015 387.233 358.91C387.216 359.805 387.904 360.764 388.968 360.884C389.484 360.942 390.052 360.793 390.485 360.427C390.915 360.06 391.172 359.49 391.178 358.91Z" fill="black"/>
<path opacity="0.1" d="M406.633 362.851C406.568 363.999 405.563 365.107 404.241 365.12C403.601 365.131 402.925 364.876 402.441 364.384C401.958 363.893 401.702 363.177 401.752 362.475C401.809 361.775 402.171 361.104 402.725 360.693C403.277 360.279 403.986 360.132 404.617 360.241C405.924 360.457 406.744 361.708 406.633 362.851ZM406.633 362.851C406.672 362.273 406.459 361.685 406.057 361.286C405.653 360.888 405.098 360.695 404.581 360.715C403.512 360.756 402.751 361.654 402.698 362.547C402.612 363.439 403.225 364.446 404.277 364.649C404.786 364.748 405.364 364.643 405.824 364.31C406.283 363.978 406.583 363.43 406.633 362.851Z" fill="black"/>
<path opacity="0.1" d="M332.795 337.852C332.818 339.001 331.901 340.184 330.584 340.298C329.946 340.358 329.252 340.156 328.733 339.702C328.214 339.251 327.904 338.554 327.9 337.852C327.904 337.149 328.213 336.451 328.732 335.999C329.25 335.544 329.946 335.342 330.584 335.403C331.903 335.518 332.819 336.702 332.795 337.852ZM332.795 337.852C332.79 337.272 332.533 336.702 332.1 336.336C331.667 335.97 331.1 335.821 330.584 335.88C329.522 336.003 328.833 336.957 328.849 337.852C328.832 338.747 329.52 339.705 330.584 339.825C331.1 339.884 331.668 339.734 332.1 339.367C332.534 339.001 332.79 338.431 332.795 337.852Z" fill="black"/>
<path opacity="0.2" d="M306.756 364.993C321.434 351.796 322.634 329.198 309.437 314.52C296.239 299.842 273.642 298.642 258.964 311.84C244.286 325.037 243.086 347.635 256.284 362.312C269.481 376.99 292.079 378.19 306.756 364.993Z" fill="black"/>
<path d="M309.656 348.564C315.26 333.76 307.801 317.215 292.996 311.611C278.192 306.007 261.647 313.466 256.043 328.271C250.439 343.075 257.898 359.62 272.703 365.224C287.507 370.828 304.052 363.369 309.656 348.564Z" fill="#263238"/>
<path d="M281.132 327.879L274.432 326.793L273.346 333.494L280.047 334.58L281.132 327.879Z" fill="#006FFF"/>
<path d="M275.517 320.093L268.816 319.008L267.731 325.709L274.432 326.794L275.517 320.093Z" fill="#006FFF"/>
<path d="M302.32 324.435L295.619 323.35L294.534 330.05L301.234 331.136L302.32 324.435Z" fill="#006FFF"/>
<path d="M271.199 346.744L264.498 345.659L263.413 352.359L270.113 353.445L271.199 346.744Z" fill="#006FFF"/>
<path d="M298.002 351.086L291.302 350L290.216 356.701L296.917 357.787L298.002 351.086Z" fill="#006FFF"/>
<path d="M278.986 341.13L272.285 340.044L271.2 346.745L277.9 347.831L278.986 341.13Z" fill="#006FFF"/>
<path d="M286.76 335.59L280.06 334.504L278.974 341.205L285.675 342.291L286.76 335.59Z" fill="#006FFF"/>
<path d="M294.535 330.05L287.834 328.964L286.749 335.665L293.449 336.751L294.535 330.05Z" fill="#006FFF"/>
<path d="M292.395 343.296L285.694 342.211L284.609 348.912L291.31 349.997L292.395 343.296Z" fill="#006FFF"/>
<path d="M406.422 376.029C418.933 360.76 416.697 338.241 401.429 325.731C386.161 313.22 363.642 315.456 351.132 330.724C338.621 345.992 340.857 368.511 356.125 381.021C371.393 393.532 393.912 391.297 406.422 376.029Z" fill="#006FFF"/>
<path opacity="0.2" d="M406.422 376.029C418.933 360.76 416.697 338.241 401.429 325.731C386.161 313.22 363.642 315.456 351.132 330.724C338.621 345.992 340.857 368.511 356.125 381.021C371.393 393.532 393.912 391.297 406.422 376.029Z" fill="black"/>
<path opacity="0.2" d="M413.552 361.661C413.387 362.365 413.2 363.045 412.989 363.725L343.323 348.865C343.488 347.622 343.711 346.379 344.003 345.124C348.566 325.926 367.834 314.057 387.046 318.618C406.246 323.181 418.115 342.449 413.552 361.661Z" fill="black"/>
<path d="M389.822 379.845C404.429 373.742 411.322 356.954 405.22 342.347C399.117 327.741 382.329 320.847 367.722 326.949C353.115 333.052 346.222 349.84 352.324 364.447C358.427 379.054 375.215 385.948 389.822 379.845Z" fill="#263238"/>
<path d="M385.992 337.732L379.388 336.162L371.576 369.035L378.18 370.604L385.992 337.732Z" fill="#006FFF"/>
<path d="M415.626 360.989L342.45 343.598C347.252 323.395 367.528 310.912 387.731 315.713C407.935 320.516 420.428 340.786 415.626 360.989Z" fill="#006FFF"/>
<path opacity="0.2" d="M415.626 360.989L342.45 343.598C347.252 323.395 367.528 310.912 387.731 315.713C407.935 320.516 420.428 340.786 415.626 360.989Z" fill="black"/>
<path opacity="0.1" d="M316.591 374.638C316.776 371.78 317.825 368.882 319.898 366.591C320.919 365.436 322.283 364.53 323.784 363.978C325.293 363.423 326.924 363.326 328.47 363.458C330.043 363.641 331.65 364.196 332.961 365.188C334.248 366.201 335.234 367.521 335.814 368.943C337.008 371.776 337.138 374.805 336.559 377.613C336.083 374.806 335.358 372.08 334.04 369.843C332.732 367.588 330.664 366.187 328.199 365.969C325.684 365.657 323.231 366.331 321.255 368.001C319.279 369.666 317.769 372.05 316.591 374.638Z" fill="black"/>
<path d="M245.245 301.739C245.541 297.921 245.971 294.12 246.333 290.311C246.739 286.508 247.157 282.706 247.619 278.912C248.058 275.114 248.553 271.323 249.039 267.53C249.515 263.737 250.065 259.954 250.574 256.165L250.709 255.154L251.735 255.218C259.981 255.737 268.21 256.403 276.428 257.249C280.536 257.671 284.639 258.148 288.737 258.675C292.828 259.262 296.924 259.804 300.991 260.548L276.282 259.019L251.599 257.422L252.76 256.476C252.199 260.257 251.678 264.044 251.084 267.82C250.499 271.598 249.923 275.377 249.293 279.148C248.685 282.922 248.033 286.691 247.368 290.457C246.661 294.218 246.019 297.988 245.245 301.739Z" fill="white"/>
<path d="M251.189 330.624C252.019 326.033 254.105 321.659 256.908 317.85C257.606 316.891 258.399 316.007 259.163 315.095C259.989 314.242 260.849 313.416 261.697 312.58C262.623 311.828 263.557 311.082 264.507 310.359C265.516 309.72 266.512 309.052 267.537 308.438C268.617 307.919 269.691 307.385 270.781 306.891L274.176 305.717L277.691 304.991C278.871 304.819 280.069 304.782 281.253 304.694C286.018 304.571 290.709 305.587 295.013 307.331C290.432 306.472 285.866 305.996 281.366 306.425C276.877 306.843 272.514 308.185 268.613 310.383C264.682 312.529 261.201 315.489 258.26 318.927C255.332 322.383 252.907 326.298 251.189 330.624Z" fill="white"/>
<path d="M349.78 340.279C351.236 335.846 353.906 331.803 357.208 328.416C358.031 327.564 358.94 326.797 359.822 325.999C360.758 325.269 361.724 324.57 362.68 323.857C363.7 323.239 364.728 322.631 365.769 322.046C366.856 321.552 367.935 321.028 369.036 320.562C370.178 320.197 371.315 319.816 372.462 319.478L375.988 318.783L379.569 318.55C380.762 318.541 381.953 318.672 383.138 318.746C387.875 319.283 392.379 320.938 396.402 323.258C391.982 321.776 387.527 320.673 383.01 320.478C378.506 320.273 374 321 369.834 322.638C365.645 324.221 361.787 326.672 358.399 329.671C355.019 332.69 352.078 336.231 349.78 340.279Z" fill="white"/>
<path d="M239.453 454.813C230.297 454.813 210.254 452.754 197.356 436.171C180.855 414.955 186.819 374.246 187.08 372.523L194.244 373.61C194.185 374.002 188.492 412.97 203.076 431.722C217.335 450.055 243.198 447.423 243.458 447.392L244.273 454.591C243.991 454.626 242.217 454.813 239.453 454.813Z" fill="#006FFF"/>
<path opacity="0.4" d="M239.453 454.813C230.297 454.813 210.254 452.754 197.356 436.171C180.855 414.955 186.819 374.246 187.08 372.523L194.244 373.61C194.185 374.002 188.492 412.97 203.076 431.722C217.335 450.055 243.198 447.423 243.458 447.392L244.273 454.591C243.991 454.626 242.217 454.813 239.453 454.813Z" fill="white"/>
<path d="M196.354 378.54C195.047 378.54 193.713 378.431 192.354 378.211C180.269 376.254 174.919 369.023 172.558 363.3C170.192 357.565 169.645 350.628 170.932 342.682L186.259 345.166C185.461 350.088 185.693 354.427 186.911 357.379C187.779 359.486 189.465 362.015 194.837 362.885C197.29 363.282 199.943 363.072 202.72 358.883C204.864 355.65 206.152 351.249 206.603 348.461L221.929 350.944C221.575 353.137 220.072 360.809 215.66 367.463C210.862 374.701 204.108 378.54 196.354 378.54Z" fill="#006FFF"/>
<path d="M254.594 475.551C254.567 475.221 241.61 473.151 241.61 473.151L235.32 430.86L251.015 424.661L254.594 475.551Z" fill="#006FFF"/>
<path opacity="0.2" d="M254.594 475.551C254.567 475.221 241.61 473.151 241.61 473.151L235.32 430.86L251.015 424.661L254.594 475.551Z" fill="black"/>
<path d="M382.707 475.63C382.741 475.301 395.742 473.517 395.742 473.517L402.964 431.376L387.41 424.831L382.707 475.63Z" fill="#006FFF"/>
<path opacity="0.2" d="M382.707 475.63C382.741 475.301 395.742 473.517 395.742 473.517L402.964 431.376L387.41 424.831L382.707 475.63Z" fill="black"/>
<path d="M249.202 415.191C249.202 415.191 354.009 410.71 389.412 416.61C389.412 416.61 379.016 518.025 378.454 519.992C378.454 519.992 274.198 519.711 257.9 519.992C257.9 519.992 249.068 452.556 249.202 415.191Z" fill="#006FFF"/>
<path opacity="0.2" d="M281.036 442.981C281.036 442.981 338.25 440.721 357.578 443.696C357.578 443.696 351.903 494.835 351.597 495.826C351.597 495.826 294.682 495.685 285.786 495.826C285.784 495.826 281.874 460.827 281.036 442.981Z" fill="black"/>
<path opacity="0.2" d="M288.856 495.805C287.546 495.805 286.508 495.822 285.781 495.83C285.781 495.83 281.877 460.824 281.032 442.979C281.032 442.979 282.334 442.928 284.606 442.852L288.856 495.805Z" fill="black"/>
<path d="M305.732 455.599C302.525 454.589 299.108 456.369 298.098 459.573C297.086 462.784 298.869 466.197 302.075 467.207C305.28 468.217 308.693 466.439 309.703 463.232C310.713 460.029 308.936 456.609 305.732 455.599ZM308.998 463.009C308.11 465.827 305.111 467.389 302.297 466.502C299.483 465.614 297.919 462.617 298.808 459.798C299.695 456.984 302.694 455.421 305.511 456.309C308.322 457.196 309.885 460.195 308.998 463.009ZM305.732 455.599C302.525 454.589 299.108 456.369 298.098 459.573C297.086 462.784 298.869 466.197 302.075 467.207C305.28 468.217 308.693 466.439 309.703 463.232C310.713 460.029 308.936 456.609 305.732 455.599ZM308.998 463.009C308.11 465.827 305.111 467.389 302.297 466.502C299.483 465.614 297.919 462.617 298.808 459.798C299.695 456.984 302.694 455.421 305.511 456.309C308.322 457.196 309.885 460.195 308.998 463.009ZM305.732 455.599C302.525 454.589 299.108 456.369 298.098 459.573C297.086 462.784 298.869 466.197 302.075 467.207C305.28 468.217 308.693 466.439 309.703 463.232C310.713 460.029 308.936 456.609 305.732 455.599ZM308.998 463.009C308.11 465.827 305.111 467.389 302.297 466.502C299.483 465.614 297.919 462.617 298.808 459.798C299.695 456.984 302.694 455.421 305.511 456.309C308.322 457.196 309.885 460.195 308.998 463.009ZM307.76 449.17C300.998 447.041 293.798 450.797 291.668 457.549C289.539 464.304 293.288 471.509 300.047 473.637C306.799 475.764 314.005 472.013 316.133 465.257C318.264 458.506 314.513 451.297 307.76 449.17ZM310.608 463.515C309.442 467.216 305.487 469.277 301.79 468.111C298.094 466.946 296.033 462.991 297.197 459.291C298.363 455.59 302.321 453.533 306.018 454.698C309.712 455.864 311.773 459.819 310.608 463.515ZM309.703 463.233C310.713 460.029 308.936 456.611 305.732 455.6C302.525 454.59 299.108 456.37 298.098 459.574C297.086 462.785 298.869 466.198 302.075 467.208C305.28 468.219 308.693 466.44 309.703 463.233ZM308.998 463.009C308.11 465.827 305.111 467.389 302.297 466.502C299.483 465.614 297.919 462.617 298.808 459.798C299.695 456.984 302.694 455.421 305.511 456.309C308.322 457.196 309.885 460.195 308.998 463.009ZM305.732 455.599C302.525 454.589 299.108 456.369 298.098 459.573C297.086 462.784 298.869 466.197 302.075 467.207C305.28 468.217 308.693 466.439 309.703 463.232C310.713 460.029 308.936 456.609 305.732 455.599ZM308.998 463.009C308.11 465.827 305.111 467.389 302.297 466.502C299.483 465.614 297.919 462.617 298.808 459.798C299.695 456.984 302.694 455.421 305.511 456.309C308.322 457.196 309.885 460.195 308.998 463.009ZM305.732 455.599C302.525 454.589 299.108 456.369 298.098 459.573C297.086 462.784 298.869 466.197 302.075 467.207C305.28 468.217 308.693 466.439 309.703 463.232C310.713 460.029 308.936 456.609 305.732 455.599ZM308.998 463.009C308.11 465.827 305.111 467.389 302.297 466.502C299.483 465.614 297.919 462.617 298.808 459.798C299.695 456.984 302.694 455.421 305.511 456.309C308.322 457.196 309.885 460.195 308.998 463.009Z" fill="#006FFF"/>
<path d="M302.56 473.87L297.856 472.388L297.066 475.8L301.251 477.117L302.56 473.87Z" fill="#006FFF"/>
<path d="M294.106 469.464L291.827 465.09L288.857 466.945L290.883 470.835L294.106 469.464Z" fill="#006FFF"/>
<path d="M291.244 460.371L292.725 455.668L289.314 454.879L287.995 459.062L291.244 460.371Z" fill="#006FFF"/>
<path d="M295.649 451.918L300.023 449.64L298.169 446.669L294.278 448.696L295.649 451.918Z" fill="#006FFF"/>
<path d="M304.742 449.055L309.447 450.538L310.235 447.126L306.052 445.808L304.742 449.055Z" fill="#006FFF"/>
<path d="M313.196 453.461L315.474 457.835L318.445 455.982L316.418 452.091L313.196 453.461Z" fill="#006FFF"/>
<path d="M316.059 462.555L314.576 467.258L317.988 468.048L319.306 463.864L316.059 462.555Z" fill="#006FFF"/>
<path d="M311.653 471.008L307.277 473.287L309.132 476.257L313.022 474.231L311.653 471.008Z" fill="#006FFF"/>
<path d="M326.419 473.499C324.523 472.264 321.985 472.802 320.75 474.696C319.513 476.595 320.053 479.13 321.949 480.366C323.844 481.6 326.379 481.064 327.614 479.167C328.849 477.273 328.315 474.734 326.419 473.499ZM327.198 478.895C326.113 480.562 323.885 481.033 322.22 479.948C320.555 478.864 320.084 476.636 321.169 474.97C322.253 473.306 324.481 472.835 326.147 473.92C327.811 475.003 328.282 477.23 327.198 478.895ZM326.419 473.499C324.523 472.264 321.985 472.802 320.75 474.696C319.513 476.595 320.053 479.13 321.949 480.366C323.844 481.6 326.379 481.064 327.614 479.167C328.849 477.273 328.315 474.734 326.419 473.499ZM327.198 478.895C326.113 480.562 323.885 481.033 322.22 479.948C320.555 478.864 320.084 476.636 321.169 474.97C322.253 473.306 324.481 472.835 326.147 473.92C327.811 475.003 328.282 477.23 327.198 478.895ZM326.419 473.499C324.523 472.264 321.985 472.802 320.75 474.696C319.513 476.595 320.053 479.13 321.949 480.366C323.844 481.6 326.379 481.064 327.614 479.167C328.849 477.273 328.315 474.734 326.419 473.499ZM327.198 478.895C326.113 480.562 323.885 481.033 322.22 479.948C320.555 478.864 320.084 476.636 321.169 474.97C322.253 473.306 324.481 472.835 326.147 473.92C327.811 475.003 328.282 477.23 327.198 478.895ZM328.897 469.697C324.896 467.095 319.549 468.228 316.946 472.222C314.344 476.219 315.472 481.569 319.47 484.17C323.464 486.771 328.816 485.64 331.417 481.645C334.02 477.65 332.891 472.298 328.897 469.697ZM328.15 479.515C326.724 481.704 323.787 482.326 321.601 480.902C319.415 479.477 318.792 476.54 320.217 474.351C321.643 472.162 324.581 471.543 326.767 472.967C328.953 474.39 329.574 477.328 328.15 479.515ZM327.614 479.167C328.849 477.272 328.315 474.735 326.419 473.5C324.523 472.265 321.985 472.803 320.75 474.697C319.513 476.596 320.053 479.132 321.949 480.367C323.844 481.602 326.379 481.064 327.614 479.167ZM327.198 478.895C326.113 480.562 323.885 481.033 322.22 479.948C320.555 478.864 320.084 476.636 321.169 474.97C322.253 473.306 324.481 472.835 326.147 473.92C327.811 475.003 328.282 477.23 327.198 478.895ZM326.419 473.499C324.523 472.264 321.985 472.802 320.75 474.696C319.513 476.595 320.053 479.13 321.949 480.366C323.844 481.6 326.379 481.064 327.614 479.167C328.849 477.273 328.315 474.734 326.419 473.499ZM327.198 478.895C326.113 480.562 323.885 481.033 322.22 479.948C320.555 478.864 320.084 476.636 321.169 474.97C322.253 473.306 324.481 472.835 326.147 473.92C327.811 475.003 328.282 477.23 327.198 478.895ZM326.419 473.499C324.523 472.264 321.985 472.802 320.75 474.696C319.513 476.595 320.053 479.13 321.949 480.366C323.844 481.6 326.379 481.064 327.614 479.167C328.849 477.273 328.315 474.734 326.419 473.499ZM327.198 478.895C326.113 480.562 323.885 481.033 322.22 479.948C320.555 478.864 320.084 476.636 321.169 474.97C322.253 473.306 324.481 472.835 326.147 473.92C327.811 475.003 328.282 477.23 327.198 478.895Z" fill="#DBDBDB"/>
<path d="M321.058 484.774L318.275 482.962L317.147 485.032L319.622 486.644L321.058 484.774Z" fill="#DBDBDB"/>
<path d="M316.372 480.389L315.686 477.14L313.424 477.806L314.035 480.695L316.372 480.389Z" fill="#DBDBDB"/>
<path d="M316.161 473.974L317.973 471.191L315.903 470.063L314.291 472.538L316.161 473.974Z" fill="#DBDBDB"/>
<path d="M320.547 469.289L323.795 468.602L323.129 466.341L320.24 466.952L320.547 469.289Z" fill="#DBDBDB"/>
<path d="M326.961 469.077L329.742 470.889L330.872 468.819L328.397 467.207L326.961 469.077Z" fill="#DBDBDB"/>
<path d="M331.646 473.463L332.333 476.711L334.594 476.045L333.984 473.156L331.646 473.463Z" fill="#DBDBDB"/>
<path d="M331.859 479.877L330.047 482.66L332.117 483.788L333.728 481.313L331.859 479.877Z" fill="#DBDBDB"/>
<path d="M327.472 484.563L324.224 485.249L324.888 487.51L327.779 486.9L327.472 484.563Z" fill="#DBDBDB"/>
<path d="M386.883 508.19L390.911 508.94L402.431 430.92L397.841 430.077L386.883 508.19Z" fill="#006FFF"/>
<path d="M351.596 495.826L357.578 443.696L397.841 430.077C397.841 430.077 386.883 509.033 386.883 508.19L351.596 495.826Z" fill="#006FFF"/>
<path opacity="0.4" d="M351.596 495.826L357.578 443.696L397.841 430.077C397.841 430.077 386.883 509.033 386.883 508.19L351.596 495.826Z" fill="white"/>
<path d="M254.011 445.808C253.355 441.489 253.001 437.136 252.731 432.778C252.607 430.598 252.551 428.415 252.503 426.233C252.46 424.05 252.422 421.865 252.487 419.681L252.504 419.108L253.063 419.077C261.061 418.648 269.055 418.123 277.058 417.773C285.06 417.378 293.061 417.02 301.068 416.77C293.086 417.492 285.1 418.108 277.112 418.688C269.126 419.312 261.131 419.76 253.141 420.304L253.716 419.7L253.683 426.22L253.759 432.743C253.77 434.919 253.81 437.094 253.873 439.27L254.011 445.808Z" fill="white"/>
<path d="M363.193 444.461C365.687 443.276 368.221 442.175 370.784 441.158C373.34 440.117 375.919 439.132 378.528 438.228C381.141 437.336 383.763 436.462 386.43 435.722C389.091 434.972 391.777 434.28 394.522 433.83L395.197 433.72L395.076 434.365C394.445 437.74 393.784 441.11 393.003 444.461C393.295 441.033 393.708 437.622 394.15 434.218L394.704 434.752C392.044 435.386 389.406 436.128 386.775 436.905C384.147 437.692 381.526 438.52 378.913 439.37L363.193 444.461Z" fill="white"/>
<path opacity="0.1" d="M271.436 415.402L272.114 428.441L272.694 441.483L273.699 467.573L274.485 493.67L274.799 506.721L275.015 519.776L274.335 506.738L273.755 493.696L272.751 467.606L271.967 441.509L271.652 428.457L271.436 415.402Z" fill="black"/>
<path opacity="0.1" d="M267.701 423.261C267.951 424.384 267.285 425.724 266.018 426.096C265.404 426.281 264.685 426.22 264.086 425.878C263.487 425.538 263.046 424.917 262.904 424.229C262.768 423.539 262.933 422.794 263.353 422.249C263.771 421.7 264.414 421.365 265.051 421.298C266.365 421.151 267.497 422.131 267.701 423.261ZM267.701 423.261C267.58 422.694 267.216 422.187 266.721 421.913C266.225 421.64 265.638 421.605 265.145 421.766C264.128 422.097 263.641 423.166 263.833 424.043C263.994 424.922 264.857 425.726 265.924 425.634C266.441 425.59 266.969 425.331 267.32 424.886C267.672 424.441 267.81 423.831 267.701 423.261Z" fill="black"/>
<path opacity="0.1" d="M268.598 438.896C268.849 440.019 268.183 441.358 266.916 441.73C266.302 441.915 265.583 441.854 264.984 441.513C264.385 441.172 263.943 440.552 263.801 439.863C263.666 439.173 263.83 438.429 264.251 437.883C264.668 437.335 265.312 436.999 265.948 436.932C267.263 436.785 268.394 437.765 268.598 438.896ZM268.598 438.896C268.478 438.329 268.113 437.821 267.618 437.547C267.122 437.274 266.536 437.24 266.042 437.401C265.026 437.731 264.538 438.802 264.731 439.677C264.891 440.557 265.755 441.361 266.822 441.268C267.338 441.224 267.866 440.964 268.218 440.52C268.569 440.076 268.708 439.465 268.598 438.896Z" fill="black"/>
<path opacity="0.1" d="M269.168 455.491C269.419 456.614 268.753 457.954 267.486 458.326C266.872 458.511 266.153 458.45 265.554 458.108C264.955 457.768 264.513 457.147 264.372 456.459C264.236 455.77 264.401 455.024 264.821 454.479C265.239 453.929 265.882 453.595 266.519 453.528C267.833 453.381 268.965 454.361 269.168 455.491ZM269.168 455.491C269.048 454.924 268.684 454.417 268.189 454.143C267.692 453.87 267.106 453.835 266.612 453.996C265.596 454.327 265.108 455.396 265.301 456.271C265.462 457.152 266.325 457.955 267.392 457.863C267.909 457.818 268.437 457.56 268.787 457.114C269.139 456.67 269.277 456.061 269.168 455.491Z" fill="black"/>
<path opacity="0.1" d="M269.738 472.086C269.988 473.209 269.323 474.548 268.055 474.921C267.441 475.106 266.722 475.045 266.123 474.703C265.525 474.362 265.083 473.742 264.941 473.053C264.805 472.363 264.97 471.619 265.39 471.073C265.808 470.525 266.45 470.19 267.088 470.123C268.402 469.976 269.534 470.956 269.738 472.086ZM269.738 472.086C269.618 471.519 269.254 471.011 268.758 470.738C268.262 470.464 267.675 470.43 267.182 470.591C266.165 470.921 265.678 471.991 265.87 472.867C266.031 473.747 266.894 474.551 267.962 474.459C268.478 474.414 269.006 474.156 269.357 473.71C269.709 473.266 269.847 472.656 269.738 472.086Z" fill="black"/>
<path opacity="0.1" d="M270.307 488.682C270.558 489.805 269.892 491.145 268.625 491.517C268.011 491.702 267.292 491.641 266.693 491.299C266.094 490.959 265.652 490.338 265.51 489.65C265.375 488.96 265.539 488.215 265.96 487.669C266.377 487.121 267.021 486.786 267.657 486.719C268.972 486.572 270.103 487.551 270.307 488.682ZM270.307 488.682C270.187 488.115 269.822 487.607 269.327 487.334C268.831 487.061 268.245 487.026 267.751 487.187C266.734 487.518 266.247 488.587 266.439 489.463C266.6 490.345 267.464 491.147 268.531 491.055C269.047 491.01 269.575 490.752 269.927 490.307C270.278 489.861 270.416 489.251 270.307 488.682Z" fill="black"/>
<path opacity="0.1" d="M270.877 505.277C271.128 506.4 270.462 507.739 269.195 508.112C268.581 508.296 267.862 508.236 267.263 507.894C266.664 507.553 266.222 506.933 266.081 506.244C265.945 505.556 266.11 504.81 266.53 504.264C266.948 503.715 267.59 503.381 268.228 503.313C269.542 503.167 270.672 504.146 270.877 505.277ZM270.877 505.277C270.757 504.71 270.393 504.202 269.898 503.929C269.401 503.655 268.815 503.621 268.321 503.782C267.305 504.112 266.817 505.182 267.01 506.058C267.171 506.939 268.034 507.742 269.101 507.65C269.618 507.605 270.146 507.346 270.496 506.901C270.848 506.456 270.986 505.847 270.877 505.277Z" fill="black"/>
<path d="M276 530.654L216.656 548.637L218.757 555.57L278.101 537.588L276 530.654Z" fill="#006FFF"/>
<path opacity="0.4" d="M276 530.654L216.656 548.637L218.757 555.57L278.101 537.588L276 530.654Z" fill="white"/>
<path d="M247.606 536.904L240.701 539.1L243.963 549.357L250.868 547.16L247.606 536.904Z" fill="#006FFF"/>
<path d="M218.293 565.729L202.979 499.417L156.758 510.375L179.518 575.001L218.293 565.729Z" fill="#006FFF"/>
<path d="M228.549 562.357L218.293 565.729L202.979 499.417L217.731 502.929L228.549 562.357Z" fill="#006FFF"/>
<path opacity="0.2" d="M228.549 562.357L218.293 565.729L202.979 499.417L217.731 502.929L228.549 562.357Z" fill="black"/>
<path d="M277.076 541.985C281.421 541.985 284.943 538.463 284.943 534.118C284.943 529.773 281.421 526.251 277.076 526.251C272.731 526.251 269.209 529.773 269.209 534.118C269.209 538.463 272.731 541.985 277.076 541.985Z" fill="#006FFF"/>
<path d="M358.028 530.462L355.912 537.391L415.218 555.498L417.334 548.569L358.028 530.462Z" fill="#006FFF"/>
<path opacity="0.4" d="M358.028 530.462L355.912 537.391L415.218 555.498L417.334 548.569L358.028 530.462Z" fill="white"/>
<path d="M386.461 536.742L383.177 546.991L390.076 549.202L393.361 538.954L386.461 536.742Z" fill="#006FFF"/>
<path d="M415.699 565.672L431.155 499.392L477.352 510.449L454.455 575.026L415.699 565.672Z" fill="#006FFF"/>
<path d="M405.451 562.278L415.699 565.672L431.155 499.392L416.396 502.873L405.451 562.278Z" fill="#006FFF"/>
<path opacity="0.2" d="M405.451 562.278L415.699 565.672L431.155 499.392L416.396 502.873L405.451 562.278Z" fill="black"/>
<path d="M349.117 533.919C349.108 538.264 352.623 541.794 356.968 541.804C361.313 541.813 364.842 538.298 364.852 533.954C364.861 529.609 361.347 526.079 357.002 526.069C352.656 526.059 349.126 529.574 349.117 533.919Z" fill="#006FFF"/>
<path d="M408.492 452.129C408.678 451.954 427.739 434.275 450.162 440.322C473.092 446.509 492.024 481.046 492.211 481.395L498.584 477.95C497.756 476.417 478.01 440.32 452.047 433.329C425.642 426.208 404.393 446.032 403.5 446.88L408.492 452.129Z" fill="#006FFF"/>
<path opacity="0.4" d="M408.492 452.129C408.678 451.954 427.739 434.275 450.162 440.322C473.092 446.509 492.024 481.046 492.211 481.395L498.584 477.95C497.756 476.417 478.01 440.32 452.047 433.329C425.642 426.208 404.393 446.032 403.5 446.88L408.492 452.129Z" fill="white"/>
<path d="M483.762 516.163L497.493 508.914C496.175 506.419 494.552 502.13 494.317 498.257C494.012 493.239 496.003 491.474 498.2 490.313C503.011 487.772 505.882 488.78 507.843 489.934C510.594 491.559 513.392 494.882 515.72 499.293L529.451 492.043C525.693 484.926 521.079 479.718 515.735 476.563C510.404 473.421 501.777 470.867 490.951 476.582C482.511 481.037 478.203 489.07 478.82 499.199C479.303 507.17 482.725 514.198 483.762 516.163Z" fill="#006FFF"/>
<path d="M411.386 427.936C414.362 425.88 417.408 423.943 420.465 422.024C423.515 420.093 426.616 418.247 429.716 416.402C432.832 414.582 435.949 412.766 439.116 411.032L443.869 408.437C445.477 407.612 447.062 406.75 448.69 405.957C447.208 406.996 445.685 407.965 444.184 408.971L439.611 411.871C436.56 413.801 433.461 415.647 430.359 417.49C427.242 419.308 424.126 421.125 420.958 422.857C417.798 424.604 414.627 426.329 411.386 427.936Z" fill="#263238"/>
<path d="M403.5 457.562C407.761 459.99 411.801 462.731 415.787 465.547C419.749 468.396 423.656 471.322 427.338 474.563C423.074 472.137 419.035 469.396 415.051 466.577C411.091 463.727 407.184 460.801 403.5 457.562Z" fill="#263238"/>
<path d="M410.5 453.918C413.789 454.917 417.027 456.046 420.257 457.194C423.493 458.329 426.693 459.557 429.893 460.785C433.082 462.041 436.269 463.299 439.422 464.649L444.149 466.677C445.707 467.396 447.282 468.074 448.827 468.83C447.179 468.343 445.558 467.778 443.924 467.255L439.069 465.556C435.833 464.421 432.632 463.194 429.434 461.965C426.246 460.708 423.057 459.449 419.906 458.098C416.749 456.76 413.6 455.404 410.5 453.918Z" fill="#263238"/>
<path d="M419.844 430.715C422.996 429.896 426.171 429.213 429.351 428.551C432.528 427.875 435.723 427.298 438.917 426.719C442.116 426.171 445.317 425.626 448.534 425.176L453.36 424.506C454.977 424.329 456.586 424.109 458.21 423.97C456.636 424.393 455.049 424.734 453.467 425.118L448.702 426.135C445.525 426.809 442.33 427.388 439.136 427.964C435.936 428.51 432.737 429.056 429.52 429.505C426.305 429.969 423.086 430.411 419.844 430.715Z" fill="#263238"/>
<path d="M343.873 450.426C344.407 447.865 345.267 445.369 346.378 442.988C347.491 440.611 348.853 438.331 350.563 436.304C352.277 434.299 354.386 432.53 356.924 431.551C359.463 430.606 362.368 430.613 364.914 431.63C367.49 432.634 369.522 434.799 370.617 437.288C371.186 438.531 371.541 439.864 371.688 441.227C371.816 442.588 371.762 444.004 371.22 445.363C370.944 446.032 370.512 446.707 369.821 447.156C369.487 447.389 369.078 447.522 368.676 447.584C368.281 447.641 367.876 447.623 367.416 447.464C366.569 447.103 366.144 446.422 365.78 445.808C365.455 445.17 365.204 444.517 365.033 443.857C364.321 441.215 364.249 438.527 364.375 435.87C364.752 430.577 366.142 425.282 368.994 420.727C370.434 418.476 372.239 416.404 374.484 414.89C376.699 413.365 379.293 412.316 381.942 412.012C383.244 411.697 384.59 411.726 385.921 411.661C386.588 411.59 387.25 411.752 387.915 411.787C388.574 411.874 389.25 411.863 389.892 412.054C392.523 412.526 394.995 413.582 397.305 414.859C399.6 416.182 401.644 417.881 403.51 419.724C405.36 421.587 407.043 423.624 408.395 425.867C405.401 421.594 401.546 417.885 397.001 415.401C394.713 414.212 392.296 413.236 389.75 412.841C389.129 412.668 388.477 412.698 387.841 412.627C387.202 412.608 386.565 412.463 385.925 412.549C384.647 412.642 383.361 412.636 382.114 412.972C379.562 413.331 377.194 414.358 375.11 415.788C373.016 417.222 371.327 419.188 369.97 421.34C367.283 425.694 365.966 430.836 365.638 435.946C365.495 438.499 365.56 441.11 366.198 443.535C366.503 444.695 367.051 446.002 367.85 446.367C367.952 446.378 368.021 446.432 368.145 446.436C368.269 446.426 368.402 446.454 368.52 446.423C368.76 446.384 368.994 446.319 369.196 446.175C369.611 445.914 369.94 445.451 370.162 444.919C370.606 443.843 370.687 442.567 370.575 441.338C370.451 440.101 370.135 438.873 369.623 437.733C368.622 435.456 366.846 433.488 364.544 432.524C362.255 431.551 359.575 431.473 357.199 432.3C354.811 433.157 352.749 434.803 351.03 436.71C347.58 440.572 345.254 445.401 343.873 450.426Z" fill="#263238"/>
<path d="M226.889 483.236C228.11 480.933 229.907 478.94 232.005 477.366C234.1 475.791 236.505 474.569 239.094 473.97C241.669 473.354 244.435 473.343 247.012 474.126C249.589 474.897 251.911 476.408 253.77 478.334C255.641 480.258 257.04 482.595 258.001 485.081C258.944 487.571 259.51 490.238 259.31 492.966C259.174 494.308 258.902 495.758 257.84 496.919C257.313 497.49 256.5 497.867 255.707 497.88C254.944 497.872 254.224 497.76 253.525 497.386C252.83 497.028 252.273 496.405 251.955 495.716C251.633 495.026 251.512 494.296 251.479 493.589C251.429 492.171 251.735 490.824 252.152 489.543C253.001 486.977 254.396 484.665 256.027 482.57C257.666 480.477 259.596 478.614 261.758 477.062C266.047 473.947 271.511 472.217 276.841 472.914C279.472 473.27 282.082 474.03 284.385 475.372C286.708 476.669 288.723 478.471 290.365 480.529C292.005 482.597 293.284 484.92 294.269 487.34C295.254 489.762 295.981 492.29 296.338 494.871C295.274 489.798 293.188 484.87 289.865 480.938C288.219 478.973 286.235 477.287 283.984 476.098C281.752 474.866 279.248 474.206 276.727 473.923C271.663 473.373 266.526 474.987 262.44 478.01C258.36 481.012 255.022 485.201 253.334 489.939C252.937 491.121 252.659 492.356 252.696 493.546C252.724 494.727 253.139 495.862 254.087 496.34C254.534 496.597 255.141 496.697 255.67 496.706C256.183 496.692 256.638 496.489 257.004 496.11C257.744 495.339 258.06 494.078 258.173 492.868C258.372 490.394 257.86 487.835 256.975 485.472C256.079 483.102 254.747 480.891 253.025 479.042C251.307 477.195 249.142 475.754 246.747 474.97C244.356 474.174 241.734 474.108 239.242 474.636C234.258 475.696 229.64 478.813 226.889 483.236Z" fill="#263238"/>
<path d="M168.318 177.503C168.175 172.294 167.07 167.049 164.645 162.478C163.431 160.215 161.821 158.123 159.707 156.722C157.596 155.352 154.976 154.789 152.521 155.186C150.056 155.574 147.862 157.061 146.345 159.032C145.577 160.017 144.976 161.133 144.56 162.305C144.158 163.472 143.932 164.731 144.107 165.881C144.195 166.45 144.403 166.978 144.745 167.331C144.907 167.52 145.119 167.637 145.343 167.733C145.45 167.79 145.586 167.796 145.704 167.835C145.825 167.86 145.904 167.823 146.006 167.839C146.868 167.674 147.714 166.536 148.286 165.483C149.485 163.28 150.171 160.759 150.641 158.246C151.541 153.206 151.49 147.898 149.919 143.029C149.117 140.614 147.944 138.302 146.253 136.411C144.571 134.525 142.517 132.963 140.124 132.004C138.994 131.382 137.743 131.082 136.525 130.684C135.924 130.449 135.27 130.438 134.645 130.303C134.011 130.221 133.385 130.036 132.74 130.055C130.174 129.831 127.593 130.202 125.088 130.811C120.081 132.139 115.453 134.82 111.525 138.255C113.374 136.4 115.493 134.823 117.734 133.455C119.986 132.111 122.376 130.95 124.921 130.212C127.467 129.522 130.122 129.086 132.788 129.256C133.458 129.223 134.11 129.396 134.772 129.469C135.425 129.593 136.107 129.594 136.738 129.822C138.014 130.203 139.329 130.495 140.518 131.112C143.017 132.039 145.286 133.677 147.073 135.686C148.891 137.691 150.15 140.135 151.011 142.664C152.693 147.767 152.779 153.242 151.882 158.471C151.37 161.082 150.657 163.675 149.337 166.071C149.013 166.671 148.613 167.246 148.146 167.788C147.646 168.297 147.071 168.858 146.163 169.006C145.677 169.05 145.281 168.97 144.91 168.821C144.535 168.664 144.169 168.439 143.901 168.132C143.337 167.531 143.078 166.773 142.97 166.059C142.768 164.61 143.053 163.223 143.502 161.93C143.969 160.64 144.634 159.431 145.482 158.36C147.139 156.205 149.629 154.587 152.37 154.228C155.086 153.848 157.909 154.534 160.149 156.06C162.379 157.616 164.006 159.837 165.192 162.193C166.368 164.57 167.146 167.109 167.66 169.683C168.171 172.258 168.411 174.888 168.318 177.503Z" fill="#263238"/>
<path d="M447.873 243.542C442.773 242.466 437.414 242.316 432.405 243.608C429.921 244.261 427.512 245.338 425.654 247.066C423.83 248.798 422.67 251.216 422.484 253.697C422.286 256.183 423.22 258.664 424.783 260.599C425.561 261.576 426.506 262.421 427.548 263.098C428.589 263.761 429.761 264.275 430.921 264.374C431.494 264.421 432.056 264.341 432.479 264.092C432.7 263.979 432.864 263.8 433.01 263.605C433.091 263.514 433.128 263.384 433.193 263.279C433.247 263.167 433.229 263.081 433.268 262.986C433.31 262.109 432.4 261.022 431.51 260.22C429.647 258.541 427.356 257.286 425.023 256.242C420.332 254.192 415.158 253.001 410.056 253.393C407.521 253.61 404.998 254.211 402.765 255.413C400.538 256.608 398.54 258.241 397.05 260.344C396.181 261.299 395.597 262.445 394.927 263.536C394.558 264.066 394.396 264.698 394.118 265.275C393.889 265.873 393.564 266.438 393.433 267.069C392.617 269.513 392.375 272.108 392.383 274.686C392.505 279.863 394.033 284.991 396.457 289.612C395.084 287.382 394.045 284.953 393.238 282.455C392.457 279.951 391.885 277.356 391.762 274.708C391.686 272.071 391.881 269.389 392.669 266.835C392.793 266.177 393.113 265.582 393.338 264.955C393.612 264.349 393.773 263.685 394.141 263.126C394.81 261.974 395.401 260.763 396.278 259.751C397.763 257.536 399.885 255.713 402.255 254.443C404.63 253.143 407.299 252.49 409.96 252.243C415.315 251.799 420.659 252.991 425.534 255.084C427.953 256.191 430.308 257.488 432.33 259.333C432.838 259.787 433.304 260.31 433.721 260.892C434.1 261.496 434.51 262.186 434.443 263.104C434.373 263.586 434.202 263.955 433.971 264.28C433.731 264.608 433.425 264.911 433.066 265.101C432.35 265.508 431.551 265.583 430.831 265.521C429.375 265.379 428.093 264.779 426.941 264.041C425.796 263.285 424.774 262.357 423.93 261.282C422.221 259.168 421.23 256.369 421.518 253.621C421.783 250.892 423.11 248.306 425.114 246.484C427.147 244.678 429.687 243.615 432.255 243.011C434.84 242.423 437.491 242.258 440.115 242.359C442.739 242.461 445.351 242.842 447.873 243.542Z" fill="#263238"/>
<path d="M369.494 161.632C368.628 158.632 368.512 155.424 368.999 152.326C369.484 149.229 370.533 146.181 372.248 143.513C373.936 140.841 376.292 138.531 379.142 137.059C381.984 135.575 385.223 134.93 388.411 135.028C391.607 135.114 394.749 135.942 397.642 137.261C400.522 138.599 403.229 140.407 405.324 142.894C406.323 144.146 407.288 145.605 407.346 147.438C407.371 148.344 407.004 149.311 406.355 149.967C405.712 150.582 405.009 151.082 404.124 151.339C403.253 151.606 402.285 151.54 401.455 151.224C400.621 150.91 399.919 150.395 399.31 149.825C398.096 148.668 397.236 147.268 396.526 145.829C395.115 142.937 394.373 139.799 394.016 136.651C393.668 133.497 393.758 130.296 394.306 127.167C395.365 120.928 398.58 114.904 403.701 111.045C406.24 109.15 409.097 107.615 412.181 106.834C415.245 105.997 418.468 105.849 421.592 106.23C424.723 106.618 427.762 107.525 430.634 108.765C433.507 110.005 436.249 111.552 438.724 113.451C433.581 109.972 427.671 107.481 421.522 106.873C418.462 106.562 415.34 106.771 412.403 107.635C409.446 108.446 406.733 109.976 404.325 111.847C401.945 113.753 399.92 116.096 398.44 118.761C396.947 121.42 395.972 124.358 395.457 127.369C394.471 133.38 395.108 139.782 397.646 145.285C398.301 146.638 399.102 147.939 400.148 148.942C401.173 149.943 402.527 150.598 403.794 150.197C404.417 150.035 405.029 149.606 405.508 149.153C405.956 148.693 406.189 148.098 406.181 147.444C406.165 146.114 405.364 144.758 404.439 143.618C402.521 141.314 399.93 139.547 397.18 138.259C394.415 136.976 391.41 136.193 388.373 136.055C385.339 135.915 382.263 136.499 379.542 137.847C376.815 139.182 374.509 141.335 372.817 143.885C369.44 148.992 368.115 155.546 369.494 161.632Z" fill="#263238"/>
<path d="M222.657 483.513C219.82 482.62 216.798 484.195 215.904 487.029C215.009 489.869 216.585 492.888 219.422 493.783C222.257 494.677 225.276 493.103 226.17 490.266C227.064 487.432 225.491 484.406 222.657 483.513ZM225.546 490.067C224.761 492.56 222.107 493.943 219.618 493.158C217.128 492.373 215.746 489.721 216.532 487.228C217.317 484.738 219.969 483.355 222.462 484.141C224.948 484.925 226.331 487.577 225.546 490.067ZM222.657 483.513C219.82 482.62 216.798 484.195 215.904 487.029C215.009 489.869 216.585 492.888 219.422 493.783C222.257 494.677 225.276 493.103 226.17 490.266C227.064 487.432 225.491 484.406 222.657 483.513ZM225.546 490.067C224.761 492.56 222.107 493.943 219.618 493.158C217.128 492.373 215.746 489.721 216.532 487.228C217.317 484.738 219.969 483.355 222.462 484.141C224.948 484.925 226.331 487.577 225.546 490.067ZM222.657 483.513C219.82 482.62 216.798 484.195 215.904 487.029C215.009 489.869 216.585 492.888 219.422 493.783C222.257 494.677 225.276 493.103 226.17 490.266C227.064 487.432 225.491 484.406 222.657 483.513ZM225.546 490.067C224.761 492.56 222.107 493.943 219.618 493.158C217.128 492.373 215.746 489.721 216.532 487.228C217.317 484.738 219.969 483.355 222.462 484.141C224.948 484.925 226.331 487.577 225.546 490.067ZM224.451 477.825C218.469 475.941 212.1 479.265 210.216 485.238C208.333 491.213 211.65 497.588 217.628 499.47C223.601 501.351 229.976 498.033 231.858 492.056C233.743 486.085 230.425 479.707 224.451 477.825ZM226.97 490.516C225.938 493.79 222.44 495.613 219.17 494.582C215.9 493.552 214.076 490.052 215.108 486.78C216.139 483.507 219.64 481.687 222.91 482.717C226.178 483.746 228.001 487.246 226.97 490.516ZM226.17 490.265C227.064 487.43 225.491 484.406 222.657 483.512C219.82 482.618 216.798 484.193 215.904 487.028C215.009 489.867 216.585 492.887 219.422 493.782C222.257 494.676 225.276 493.102 226.17 490.265ZM225.546 490.067C224.761 492.56 222.107 493.943 219.618 493.158C217.128 492.373 215.746 489.721 216.532 487.228C217.317 484.738 219.969 483.355 222.462 484.141C224.948 484.925 226.331 487.577 225.546 490.067ZM222.657 483.513C219.82 482.62 216.798 484.195 215.904 487.029C215.009 489.869 216.585 492.888 219.422 493.783C222.257 494.677 225.276 493.103 226.17 490.266C227.064 487.432 225.491 484.406 222.657 483.513ZM225.546 490.067C224.761 492.56 222.107 493.943 219.618 493.158C217.128 492.373 215.746 489.721 216.532 487.228C217.317 484.738 219.969 483.355 222.462 484.141C224.948 484.925 226.331 487.577 225.546 490.067ZM222.657 483.513C219.82 482.62 216.798 484.195 215.904 487.029C215.009 489.869 216.585 492.888 219.422 493.783C222.257 494.677 225.276 493.103 226.17 490.266C227.064 487.432 225.491 484.406 222.657 483.513ZM225.546 490.067C224.761 492.56 222.107 493.943 219.618 493.158C217.128 492.373 215.746 489.721 216.532 487.228C217.317 484.738 219.969 483.355 222.462 484.141C224.948 484.925 226.331 487.577 225.546 490.067Z" fill="#455A64"/>
<path d="M219.849 499.676L215.688 498.365L214.99 501.383L218.691 502.549L219.849 499.676Z" fill="#455A64"/>
<path d="M212.371 495.778L210.355 491.908L207.729 493.549L209.52 496.991L212.371 495.778Z" fill="#455A64"/>
<path d="M209.839 487.734L211.151 483.573L208.133 482.875L206.967 486.576L209.839 487.734Z" fill="#455A64"/>
<path d="M213.737 480.256L217.606 478.241L215.965 475.612L212.524 477.405L213.737 480.256Z" fill="#455A64"/>
<path d="M221.78 477.724L225.942 479.034L226.64 476.018L222.939 474.852L221.78 477.724Z" fill="#455A64"/>
<path d="M229.259 481.621L231.274 485.491L233.902 483.85L232.11 480.409L229.259 481.621Z" fill="#455A64"/>
<path d="M231.792 489.665L230.48 493.826L233.499 494.525L234.665 490.823L231.792 489.665Z" fill="#455A64"/>
<path d="M227.894 497.143L224.023 499.159L225.664 501.787L229.106 499.994L227.894 497.143Z" fill="#455A64"/>
<path d="M432.559 447.34C438.266 439.65 436.658 428.787 428.968 423.081C421.276 417.372 410.412 418.98 404.707 426.669C398.998 434.361 400.606 445.224 408.298 450.933C415.987 456.64 426.85 455.033 432.559 447.34ZM425.136 441.831C422.468 445.426 417.398 446.176 413.806 443.511C410.212 440.844 409.462 435.774 412.129 432.178C414.794 428.587 419.866 427.836 423.46 430.503C427.05 433.169 427.801 438.24 425.136 441.831Z" fill="#263238"/>
<path d="M411.402 452.341L406.047 448.367L403.53 452.377L408.293 455.912L411.402 452.341Z" fill="#263238"/>
<path d="M402.549 442.972L401.572 436.375L396.956 437.431L397.825 443.299L402.549 442.972Z" fill="#263238"/>
<path d="M402.913 430.087L406.888 424.732L402.877 422.215L399.343 426.978L402.913 430.087Z" fill="#263238"/>
<path d="M412.283 421.234L418.88 420.256L417.824 415.641L411.956 416.509L412.283 421.234Z" fill="#263238"/>
<path d="M425.168 421.597L430.523 425.572L433.04 421.562L428.277 418.027L425.168 421.597Z" fill="#263238"/>
<path d="M434.021 430.967L434.997 437.564L439.612 436.508L438.744 430.64L434.021 430.967Z" fill="#263238"/>
<path d="M433.658 443.852L429.683 449.207L433.693 451.724L437.228 446.961L433.658 443.852Z" fill="#263238"/>
<path d="M424.288 452.706L417.69 453.682L418.746 458.297L424.614 457.43L424.288 452.706Z" fill="#263238"/>
<path d="M412.42 437.837L416.104 442.484L421.971 441.613L424.148 436.102L420.468 431.458L414.601 432.324L412.42 437.837ZM419.403 435.46C420.239 436.08 420.412 437.254 419.792 438.089C419.174 438.921 417.998 439.098 417.162 438.478C416.331 437.86 416.156 436.68 416.774 435.849C417.394 435.014 418.571 434.843 419.403 435.46Z" fill="#263238"/>
<path d="M445.559 109.637C443.077 108.854 440.432 110.233 439.65 112.713C438.867 115.198 440.246 117.841 442.729 118.623C445.209 119.405 447.851 118.028 448.633 115.545C449.416 113.065 448.039 110.418 445.559 109.637ZM448.088 115.372C447.4 117.553 445.08 118.762 442.9 118.076C440.721 117.39 439.512 115.068 440.198 112.887C440.884 110.708 443.206 109.499 445.387 110.185C447.565 110.871 448.775 113.193 448.088 115.372ZM445.559 109.637C443.077 108.854 440.432 110.233 439.65 112.713C438.867 115.198 440.246 117.841 442.729 118.623C445.209 119.405 447.851 118.028 448.633 115.545C449.416 113.065 448.039 110.418 445.559 109.637ZM448.088 115.372C447.4 117.553 445.08 118.762 442.9 118.076C440.721 117.39 439.512 115.068 440.198 112.887C440.884 110.708 443.206 109.499 445.387 110.185C447.565 110.871 448.775 113.193 448.088 115.372ZM445.559 109.637C443.077 108.854 440.432 110.233 439.65 112.713C438.867 115.198 440.246 117.841 442.729 118.623C445.209 119.405 447.851 118.028 448.633 115.545C449.416 113.065 448.039 110.418 445.559 109.637ZM448.088 115.372C447.4 117.553 445.08 118.762 442.9 118.076C440.721 117.39 439.512 115.068 440.198 112.887C440.884 110.708 443.206 109.499 445.387 110.185C447.565 110.871 448.775 113.193 448.088 115.372ZM447.13 104.66C441.897 103.012 436.323 105.92 434.674 111.146C433.027 116.374 435.929 121.952 441.161 123.6C446.389 125.247 451.965 122.342 453.612 117.113C455.261 111.887 452.357 106.306 447.13 104.66ZM449.335 115.764C448.432 118.628 445.371 120.224 442.508 119.322C439.646 118.419 438.051 115.358 438.953 112.494C439.856 109.631 442.92 108.037 445.781 108.939C448.641 109.841 450.236 112.902 449.335 115.764ZM448.634 115.545C449.417 113.065 448.041 110.418 445.561 109.637C443.078 108.854 440.433 110.233 439.651 112.713C438.869 115.198 440.247 117.841 442.73 118.623C445.21 119.404 447.852 118.028 448.634 115.545ZM448.088 115.372C447.4 117.553 445.08 118.762 442.9 118.076C440.721 117.39 439.512 115.068 440.198 112.887C440.884 110.708 443.206 109.499 445.387 110.185C447.565 110.871 448.775 113.193 448.088 115.372ZM445.559 109.637C443.077 108.854 440.432 110.233 439.65 112.713C438.867 115.198 440.246 117.841 442.729 118.623C445.209 119.405 447.851 118.028 448.633 115.545C449.416 113.065 448.039 110.418 445.559 109.637ZM448.088 115.372C447.4 117.553 445.08 118.762 442.9 118.076C440.721 117.39 439.512 115.068 440.198 112.887C440.884 110.708 443.206 109.499 445.387 110.185C447.565 110.871 448.775 113.193 448.088 115.372ZM445.559 109.637C443.077 108.854 440.432 110.233 439.65 112.713C438.867 115.198 440.246 117.841 442.729 118.623C445.209 119.405 447.851 118.028 448.633 115.545C449.416 113.065 448.039 110.418 445.559 109.637ZM448.088 115.372C447.4 117.553 445.08 118.762 442.9 118.076C440.721 117.39 439.512 115.068 440.198 112.887C440.884 110.708 443.206 109.499 445.387 110.185C447.565 110.871 448.775 113.193 448.088 115.372Z" fill="#263238"/>
<path d="M443.104 123.779L439.463 122.632L438.853 125.273L442.091 126.294L443.104 123.779Z" fill="#263238"/>
<path d="M436.56 120.369L434.796 116.983L432.497 118.418L434.066 121.43L436.56 120.369Z" fill="#263238"/>
<path d="M434.344 113.33L435.492 109.689L432.851 109.079L431.831 112.317L434.344 113.33Z" fill="#263238"/>
<path d="M437.754 106.786L441.141 105.022L439.705 102.723L436.693 104.292L437.754 106.786Z" fill="#263238"/>
<path d="M444.794 104.57L448.435 105.717L449.046 103.077L445.808 102.056L444.794 104.57Z" fill="#263238"/>
<path d="M451.338 107.981L453.101 111.367L455.401 109.932L453.832 106.92L451.338 107.981Z" fill="#263238"/>
<path d="M453.553 115.02L452.406 118.661L455.047 119.273L456.068 116.034L453.553 115.02Z" fill="#263238"/>
<path d="M450.142 121.564L446.757 123.327L448.191 125.627L451.203 124.058L450.142 121.564Z" fill="#263238"/>
<path d="M397.179 290.504C394.696 289.722 392.052 291.1 391.269 293.58C390.487 296.066 391.865 298.708 394.348 299.49C396.828 300.272 399.47 298.895 400.253 296.412C401.034 293.932 399.659 291.285 397.179 290.504ZM399.706 296.239C399.018 298.42 396.698 299.629 394.519 298.943C392.34 298.257 391.131 295.935 391.817 293.754C392.503 291.575 394.825 290.366 397.007 291.052C399.183 291.738 400.393 294.06 399.706 296.239ZM397.179 290.504C394.696 289.722 392.052 291.1 391.269 293.58C390.487 296.066 391.865 298.708 394.348 299.49C396.828 300.272 399.47 298.895 400.253 296.412C401.034 293.932 399.659 291.285 397.179 290.504ZM399.706 296.239C399.018 298.42 396.698 299.629 394.519 298.943C392.34 298.257 391.131 295.935 391.817 293.754C392.503 291.575 394.825 290.366 397.007 291.052C399.183 291.738 400.393 294.06 399.706 296.239ZM397.179 290.504C394.696 289.722 392.052 291.1 391.269 293.58C390.487 296.066 391.865 298.708 394.348 299.49C396.828 300.272 399.47 298.895 400.253 296.412C401.034 293.932 399.659 291.285 397.179 290.504ZM399.706 296.239C399.018 298.42 396.698 299.629 394.519 298.943C392.34 298.257 391.131 295.935 391.817 293.754C392.503 291.575 394.825 290.366 397.007 291.052C399.183 291.738 400.393 294.06 399.706 296.239ZM398.749 285.527C393.515 283.879 387.941 286.787 386.292 292.013C384.645 297.243 387.547 302.82 392.779 304.467C398.007 306.114 403.584 303.21 405.231 297.98C406.879 292.754 403.975 287.173 398.749 285.527ZM400.953 296.631C400.05 299.495 396.989 301.092 394.126 300.189C391.265 299.288 389.669 296.225 390.572 293.361C391.474 290.498 394.538 288.904 397.399 289.806C400.259 290.708 401.854 293.769 400.953 296.631ZM400.253 296.412C401.034 293.932 399.659 291.285 397.179 290.504C394.696 289.722 392.052 291.1 391.269 293.58C390.487 296.066 391.865 298.708 394.348 299.49C396.828 300.272 399.47 298.895 400.253 296.412ZM399.706 296.239C399.018 298.42 396.698 299.629 394.519 298.943C392.34 298.257 391.131 295.935 391.817 293.754C392.503 291.575 394.825 290.366 397.007 291.052C399.183 291.738 400.393 294.06 399.706 296.239ZM397.179 290.504C394.696 289.722 392.052 291.1 391.269 293.58C390.487 296.066 391.865 298.708 394.348 299.49C396.828 300.272 399.47 298.895 400.253 296.412C401.034 293.932 399.659 291.285 397.179 290.504ZM399.706 296.239C399.018 298.42 396.698 299.629 394.519 298.943C392.34 298.257 391.131 295.935 391.817 293.754C392.503 291.575 394.825 290.366 397.007 291.052C399.183 291.738 400.393 294.06 399.706 296.239ZM397.179 290.504C394.696 289.722 392.052 291.1 391.269 293.58C390.487 296.066 391.865 298.708 394.348 299.49C396.828 300.272 399.47 298.895 400.253 296.412C401.034 293.932 399.659 291.285 397.179 290.504ZM399.706 296.239C399.018 298.42 396.698 299.629 394.519 298.943C392.34 298.257 391.131 295.935 391.817 293.754C392.503 291.575 394.825 290.366 397.007 291.052C399.183 291.738 400.393 294.06 399.706 296.239Z" fill="#263238"/>
<path d="M394.722 304.646L391.081 303.5L390.471 306.14L393.709 307.161L394.722 304.646Z" fill="#263238"/>
<path d="M388.178 301.236L386.416 297.851L384.115 299.285L385.684 302.297L388.178 301.236Z" fill="#263238"/>
<path d="M385.962 294.197L387.11 290.556L384.47 289.945L383.449 293.184L385.962 294.197Z" fill="#263238"/>
<path d="M389.372 287.653L392.759 285.891L391.323 283.59L388.312 285.159L389.372 287.653Z" fill="#263238"/>
<path d="M396.412 285.437L400.053 286.586L400.665 283.945L397.426 282.924L396.412 285.437Z" fill="#263238"/>
<path d="M402.956 288.848L404.72 292.235L407.019 290.799L405.45 287.787L402.956 288.848Z" fill="#263238"/>
<path d="M405.171 295.887L404.024 299.528L406.665 300.139L407.686 296.901L405.171 295.887Z" fill="#263238"/>
<path d="M401.76 302.431L398.375 304.194L399.809 306.493L402.821 304.925L401.76 302.431Z" fill="#263238"/>
<path d="M120.296 148.114C122.249 140.102 117.335 132.024 109.324 130.072C101.31 128.12 93.2306 133.033 91.2784 141.044C89.3262 149.058 94.2396 157.138 102.253 159.09C110.266 161.041 118.344 156.127 120.296 148.114ZM112.564 146.23C111.651 149.975 107.881 152.269 104.138 151.356C100.394 150.443 98.0996 146.673 99.0124 142.928C99.9239 139.186 103.695 136.893 107.44 137.806C111.181 138.717 113.475 142.488 112.564 146.23Z" fill="#263238"/>
<path d="M105.189 159.166L99.6093 157.806L98.9561 161.831L103.918 163.04L105.189 159.166Z" fill="#263238"/>
<path d="M95.0283 154.699L92.0444 149.792L88.7363 152.176L91.3899 156.54L95.0283 154.699Z" fill="#263238"/>
<path d="M91.0009 144.355L92.3606 138.777L88.336 138.122L87.127 143.085L91.0009 144.355Z" fill="#263238"/>
<path d="M95.4687 134.194L100.374 131.21L97.9918 127.902L93.6279 130.557L95.4687 134.194Z" fill="#263238"/>
<path d="M105.812 130.168L111.391 131.528L112.045 127.503L107.083 126.294L105.812 130.168Z" fill="#263238"/>
<path d="M115.973 134.634L118.957 139.541L122.265 137.157L119.611 132.793L115.973 134.634Z" fill="#263238"/>
<path d="M120 144.979L118.641 150.558L122.665 151.212L123.874 146.249L120 144.979Z" fill="#263238"/>
<path d="M115.532 155.14L110.626 158.124L113.01 161.432L117.374 158.777L115.532 155.14Z" fill="#263238"/>
<path d="M101.139 147.319L105.617 149.772L109.978 147.116L109.861 142.015L105.385 139.564L101.021 142.215L101.139 147.319ZM105.883 143.095C106.754 143.306 107.284 144.18 107.072 145.051C106.86 145.918 105.987 146.452 105.116 146.24C104.249 146.028 103.716 145.151 103.927 144.284C104.14 143.414 105.016 142.883 105.883 143.095Z" fill="#263238"/>
<path d="M457.773 302.496C454.368 297.31 452.453 291.478 452.453 285.312C452.453 263.542 476.359 245.892 505.831 245.892C535.302 245.892 559.186 263.543 559.186 285.312C559.186 307.081 535.302 324.733 505.831 324.733C491.54 324.733 478.585 320.593 469.014 313.826L450.628 318.502L457.773 302.496Z" fill="white"/>
<path d="M457.773 302.496C454.56 297.709 452.546 292.056 452.334 286.249C452.175 280.455 453.603 274.592 456.579 269.577C459.489 264.526 463.635 260.267 468.319 256.841C473.008 253.396 478.289 250.795 483.8 248.965C489.312 247.123 495.056 246.019 500.849 245.556C506.651 245.132 512.492 245.492 518.226 246.44C519.65 246.732 521.096 246.927 522.502 247.301L526.718 248.435L530.837 249.89C532.206 250.383 533.508 251.051 534.847 251.623C540.104 254.123 545.032 257.4 549.177 261.536C553.312 265.655 556.646 270.689 558.405 276.321C560.16 281.933 560.287 288.094 558.58 293.738C556.919 299.4 553.661 304.486 549.582 308.66C545.494 312.85 540.605 316.185 535.375 318.742C530.147 321.33 524.513 323.015 518.799 324.053C513.076 325.036 507.236 325.456 501.44 325.047C495.646 324.681 489.889 323.623 484.374 321.802C478.866 319.988 473.565 317.455 468.848 314.063L469.086 314.107L450.663 318.637L450.385 318.706L450.502 318.446L457.773 302.496ZM457.773 302.496L450.754 318.556L450.594 318.365L468.943 313.545L469.07 313.512L469.181 313.59C478.648 320.125 490.066 323.526 501.494 324.138C507.222 324.491 512.982 324.023 518.608 323.006C524.229 321.962 529.767 320.292 534.886 317.737C540.009 315.214 544.78 311.935 548.744 307.846C552.7 303.772 555.827 298.843 557.409 293.398C559.038 287.97 558.882 282.075 557.2 276.692C555.527 271.282 552.329 266.407 548.32 262.389C544.303 258.357 539.497 255.136 534.351 252.67C533.039 252.105 531.766 251.446 530.423 250.958L526.383 249.517L522.242 248.391C520.86 248.018 519.437 247.825 518.037 247.532C512.397 246.575 506.643 246.228 500.922 246.595C495.209 247.002 489.535 248.04 484.083 249.809C478.632 251.565 473.403 254.084 468.753 257.438C464.103 260.771 460.006 264.936 457.052 269.852C454.043 274.742 452.543 280.495 452.609 286.24C452.724 291.997 454.635 297.66 457.773 302.496Z" fill="#263238"/>
<path d="M478.372 291.766V294.697H466.428V277.495H478.155V280.427H469.773V284.569H477.017V287.283H469.773V291.765L478.372 291.766Z" fill="#263238"/>
<path d="M480.99 294.698V277.496H488.599C489.39 277.496 490.121 277.661 490.79 277.993C491.46 278.325 492.037 278.76 492.522 279.301C493.007 279.843 493.387 280.457 493.66 281.143C493.935 281.829 494.072 282.52 494.072 283.214C494.072 284.328 493.793 285.342 493.236 286.255C492.68 287.168 491.925 287.826 490.971 288.229L494.897 294.698H491.141L487.629 288.931H484.334V294.698H480.99ZM484.334 285.999H488.525C488.832 285.999 489.119 285.927 489.385 285.782C489.652 285.636 489.881 285.438 490.076 285.188C490.27 284.938 490.423 284.643 490.536 284.304C490.65 283.965 490.707 283.602 490.707 283.214C490.707 282.81 490.641 282.439 490.513 282.1C490.383 281.761 490.211 281.467 489.992 281.216C489.774 280.966 489.523 280.772 489.241 280.634C488.957 280.497 488.671 280.428 488.38 280.428H484.335V285.999H484.334Z" fill="#263238"/>
<path d="M497.101 294.698V277.496H504.709C505.501 277.496 506.231 277.661 506.901 277.993C507.57 278.325 508.148 278.76 508.633 279.301C509.117 279.843 509.497 280.457 509.771 281.143C510.045 281.829 510.182 282.52 510.182 283.214C510.182 284.328 509.904 285.342 509.347 286.255C508.791 287.168 508.035 287.826 507.082 288.229L511.006 294.698H507.25L503.737 288.931H500.443V294.698H497.101ZM500.445 285.999H504.636C504.942 285.999 505.23 285.927 505.495 285.782C505.763 285.636 505.992 285.438 506.187 285.188C506.38 284.938 506.534 284.643 506.646 284.304C506.76 283.965 506.817 283.602 506.817 283.214C506.817 282.81 506.751 282.439 506.623 282.1C506.493 281.761 506.321 281.467 506.102 281.216C505.884 280.966 505.633 280.772 505.351 280.634C505.068 280.497 504.781 280.428 504.49 280.428H500.445V285.999Z" fill="#263238"/>
<path d="M520.554 294.818C519.294 294.818 518.152 294.573 517.126 294.08C516.099 293.588 515.219 292.933 514.485 292.118C513.749 291.303 513.181 290.37 512.776 289.32C512.373 288.271 512.172 287.196 512.172 286.098C512.172 284.951 512.386 283.854 512.814 282.803C513.242 281.753 513.832 280.824 514.581 280.016C515.333 279.209 516.226 278.567 517.259 278.091C518.292 277.615 519.415 277.375 520.626 277.375C521.869 277.375 523.004 277.63 524.031 278.139C525.057 278.648 525.933 279.314 526.659 280.138C527.385 280.961 527.951 281.899 528.355 282.948C528.759 283.999 528.96 285.064 528.96 286.146C528.96 287.293 528.75 288.387 528.331 289.429C527.911 290.471 527.328 291.391 526.587 292.191C525.843 292.992 524.955 293.63 523.922 294.106C522.887 294.58 521.766 294.818 520.554 294.818ZM515.562 286.097C515.562 286.84 515.675 287.559 515.902 288.253C516.128 288.948 516.456 289.562 516.883 290.095C517.311 290.628 517.836 291.056 518.458 291.379C519.079 291.702 519.786 291.864 520.578 291.864C521.386 291.864 522.1 291.699 522.721 291.367C523.343 291.037 523.867 290.596 524.296 290.047C524.724 289.497 525.047 288.88 525.266 288.193C525.484 287.507 525.593 286.808 525.593 286.098C525.593 285.356 525.475 284.637 525.242 283.942C525.008 283.248 524.677 282.633 524.25 282.1C523.82 281.567 523.296 281.143 522.675 280.829C522.053 280.514 521.354 280.356 520.579 280.356C519.77 280.356 519.053 280.522 518.423 280.853C517.793 281.185 517.268 281.62 516.848 282.161C516.428 282.703 516.109 283.317 515.891 284.003C515.671 284.688 515.562 285.387 515.562 286.097Z" fill="#263238"/>
<path d="M531.529 294.698V277.496H539.138C539.929 277.496 540.66 277.661 541.329 277.993C541.999 278.325 542.576 278.76 543.061 279.301C543.546 279.843 543.926 280.457 544.199 281.143C544.474 281.829 544.611 282.52 544.611 283.214C544.611 284.328 544.332 285.342 543.775 286.255C543.22 287.168 542.464 287.826 541.51 288.229L545.436 294.698H541.68L538.168 288.931H534.873V294.698H531.529ZM534.873 285.999H539.065C539.371 285.999 539.658 285.927 539.924 285.782C540.191 285.636 540.422 285.438 540.615 285.188C540.809 284.938 540.962 284.643 541.075 284.304C541.189 283.965 541.246 283.602 541.246 283.214C541.246 282.81 541.18 282.439 541.052 282.1C540.922 281.761 540.75 281.467 540.531 281.216C540.313 280.966 540.062 280.772 539.78 280.634C539.496 280.497 539.21 280.428 538.919 280.428H534.874V285.999H534.873Z" fill="#263238"/>
</svg>
